<svg width="50" height="50" viewBox="0 0 50 50" fill="none" xmlns="http://www.w3.org/2000/svg">
<g clip-path="url(#clip0_102_135)">
<path d="M49.4746 33.5062V25.6111C49.4746 24.3919 48.4832 23.4 47.2645 23.4H43.4538C43.1495 23.4 42.8791 23.2183 42.7651 22.9375L41.354 19.4555C41.3496 19.4441 41.3453 19.4329 41.3403 19.4218L40.7417 17.9446C40.4283 17.1729 39.7455 15.8785 38.6931 15.8785H38.051V14.2306C38.051 13.5511 37.4982 12.9983 36.8187 12.9983H34.3807C33.7012 12.9983 33.1484 13.5511 33.1484 14.2306V15.8785H32.2927V15.8433C32.2927 14.7643 31.4149 13.8865 30.336 13.8865H8.17223C7.76699 13.8865 7.43846 14.2151 7.43846 14.6203C7.43846 15.0255 7.76699 15.3541 8.17223 15.3541H30.336C30.6057 15.3541 30.8251 15.5735 30.8251 15.8433V19.3037C30.8251 19.709 31.1536 20.0375 31.5589 20.0375C31.9642 20.0375 32.2927 19.709 32.2927 19.3037V17.346H38.6541C38.8021 17.431 39.1229 17.8586 39.3818 18.4963L39.5799 18.9852H36.0785C35.3828 18.9852 34.8168 19.5512 34.8168 20.247V23.6074C34.8168 24.3031 35.3828 24.8692 36.0785 24.8692L47.2645 24.8675C47.6739 24.8675 48.0071 25.2011 48.0071 25.6111V26.0955H45.1974C44.6024 26.0955 44.1183 26.5796 44.1183 27.1746V29.4914C44.1183 30.0864 44.6024 30.5705 45.1974 30.5705H48.0071V32.9595H40.9464C39.8154 32.5207 38.5446 32.515 37.4143 32.9595H32.2926V22.63C32.2926 22.2248 31.9641 21.8963 31.5588 21.8963C31.1535 21.8963 30.825 22.2248 30.825 22.63V32.9596H11.9958C10.8663 32.5159 9.59447 32.5214 8.46437 32.9596H1.99292V15.8432C1.99292 15.5734 2.21236 15.354 2.4821 15.354H4.84581C5.25105 15.354 5.57958 15.0255 5.57958 14.6202C5.57958 14.215 5.25105 13.8864 4.84581 13.8864H2.4821C1.40316 13.8864 0.525379 14.7642 0.525379 15.8432V33.5062C0.200857 33.8359 0 34.2874 0 34.7852V36.3858C0 37.3929 0.819375 38.2124 1.8266 38.2124H5.42842C5.65482 39.6911 6.56117 40.9963 7.86698 41.726C9.28404 42.518 11.0469 42.5371 12.4851 41.7856C13.2074 41.4083 13.8253 40.8463 14.2755 40.1675C14.6731 39.5682 14.9275 38.9028 15.032 38.2123H34.38C34.6529 40.0057 35.9419 41.5267 37.6632 42.0928C39.414 42.6686 41.3879 42.1851 42.6727 40.8618C43.3732 40.1402 43.8298 39.2052 43.9824 38.2123H48.1735C49.1807 38.2123 50.0001 37.3929 50.0001 36.3857V34.7851C50 34.2874 49.799 33.8358 49.4746 33.5062ZM34.6159 14.4658H36.5834V15.8785H34.6159V14.4658ZM36.2844 20.4526H40.1746L41.3697 23.4016H36.2844V20.4526ZM45.5858 29.1031V27.5631H48.0071V29.1031H45.5858ZM34.4914 36.2263C34.4454 36.3983 34.4099 36.5714 34.3828 36.7448H15.0284C14.8972 35.8983 14.5448 35.0927 14.0047 34.4271H35.4068C34.984 34.949 34.6706 35.558 34.4914 36.2263ZM1.46754 36.3858V34.7852C1.46754 34.5877 1.62858 34.4271 1.8266 34.4271H6.4556C5.9176 35.0938 5.55786 35.8974 5.42803 36.7448H1.8266C1.62858 36.7448 1.46754 36.5838 1.46754 36.3858ZM13.0527 39.3564C12.2452 40.5733 10.6966 41.1481 9.29049 40.7405C8.02058 40.3725 7.06463 39.2705 6.87669 37.9634C6.6907 36.6697 7.28691 35.3504 8.38629 34.6399C9.63419 33.8335 11.3068 33.9456 12.4366 34.9118C13.566 35.8774 13.932 37.5285 13.3161 38.8819C13.2411 39.0466 13.1528 39.2055 13.0527 39.3564ZM42.4548 38.3601C42.1113 39.6418 41.0177 40.6272 39.7054 40.8308C38.5112 41.0161 37.2726 40.5333 36.5234 39.5842C35.5964 38.4098 35.5572 36.7151 36.4319 35.5006C37.3309 34.2524 39.0095 33.7692 40.4381 34.3357C41.7989 34.8753 42.6749 36.2843 42.5606 37.7444C42.5442 37.9523 42.5088 38.1586 42.4548 38.3601ZM48.5325 36.3858C48.5325 36.5837 48.3714 36.7448 48.1734 36.7448H43.9825C43.852 35.8979 43.4935 35.0939 42.9558 34.4271H48.1734C48.3713 34.4271 48.5325 34.5877 48.5325 34.7852V36.3858Z" fill="#CFD9E8"/>
<path d="M11.6146 26.3125H13.9583V28.6562C13.9583 29.0883 14.3083 29.4375 14.7396 29.4375H17.8646C18.2958 29.4375 18.6458 29.0883 18.6458 28.6562V26.3125H20.9896C21.4208 26.3125 21.7708 25.9633 21.7708 25.5312V22.4062C21.7708 21.9742 21.4208 21.625 20.9896 21.625H18.6458V19.2812C18.6458 18.8492 18.2958 18.5 17.8646 18.5H14.7396C14.3083 18.5 13.9583 18.8492 13.9583 19.2812V21.625H11.6146C11.1833 21.625 10.8333 21.9742 10.8333 22.4062V25.5312C10.8333 25.9633 11.1833 26.3125 11.6146 26.3125ZM12.3958 23.1875H14.7396C15.1708 23.1875 15.5208 22.8383 15.5208 22.4062V20.0625H17.0833V22.4062C17.0833 22.8383 17.4333 23.1875 17.8646 23.1875H20.2083V24.75H17.8646C17.4333 24.75 17.0833 25.0992 17.0833 25.5312V27.875H15.5208V25.5312C15.5208 25.0992 15.1708 24.75 14.7396 24.75H12.3958V23.1875Z" fill="#CFD9E8"/>
<path d="M35.8452 27.4209C36.2505 27.4209 36.579 27.0924 36.579 26.6871C36.579 26.2819 36.2505 25.9534 35.8452 25.9534H34.1767C33.7714 25.9534 33.4429 26.2819 33.4429 26.6871C33.4429 27.0924 33.7714 27.4209 34.1767 27.4209H35.8452Z" fill="#CFD9E8"/>
<rect x="37.5001" y="9.83325" width="4.33333" height="1.66667" rx="0.833333" transform="rotate(-45 37.5001 9.83325)" fill="#CFD9E8"/>
<rect x="35.0001" y="11" width="4.33333" height="1.66666" rx="0.833332" transform="rotate(-90 35.0001 11)" fill="#CFD9E8"/>
<rect x="31.1785" y="6.83325" width="4.33333" height="1.66667" rx="0.833334" transform="rotate(45 31.1785 6.83325)" fill="#CFD9E8"/>
</g>
<defs>
<clipPath id="clip0_102_135">
<rect width="50" height="50" fill="white"/>
</clipPath>
</defs>
</svg>
