<svg width="40" height="40" viewBox="0 0 40 40" fill="none" xmlns="http://www.w3.org/2000/svg">
<path d="M3.33336 9C3.33444 8.02787 3.7211 7.09587 4.4085 6.40847C5.09589 5.72107 6.0279 5.33441 7.00003 5.33333H19.6667C20.5893 5.33677 21.4769 5.68644 22.1539 6.31313C22.831 6.93983 23.248 7.79787 23.3226 8.71742L24.652 8.61592C24.5505 7.36181 23.9819 6.19152 23.0586 5.3367C22.1354 4.48188 20.9249 4.00484 19.6667 4H18.6667C18.6655 2.93951 18.2437 1.9228 17.4938 1.17291C16.7439 0.42303 15.7272 0.00121307 14.6667 0H12C10.9395 0.00121307 9.92282 0.42303 9.17294 1.17291C8.42306 1.9228 8.00124 2.93951 8.00003 4H7.00003C5.6744 4.0015 4.40351 4.52877 3.46615 5.46612C2.52879 6.40348 2.00153 7.67438 2.00003 9V14H3.33336V9ZM12 1.33333H14.6667C15.3737 1.33413 16.0515 1.61533 16.5514 2.11526C17.0514 2.61518 17.3326 3.293 17.3334 4H9.33336C9.33415 3.293 9.61536 2.61518 10.1153 2.11526C10.6152 1.61533 11.293 1.33413 12 1.33333Z" fill="#CFD9E8"/>
<path d="M14.6667 2H12V3.33333H14.6667V2Z" fill="#CFD9E8"/>
<path d="M15.3333 17.3333C15.3333 17.1565 15.2631 16.9869 15.1381 16.8619C15.013 16.7369 14.8435 16.6666 14.6667 16.6666H13.3333V15.3333C13.3333 15.1565 13.2631 14.9869 13.1381 14.8619C13.013 14.7369 12.8435 14.6666 12.6667 14.6666H10C9.82319 14.6666 9.65362 14.7369 9.5286 14.8619C9.40357 14.9869 9.33334 15.1565 9.33334 15.3333V16.6666H8C7.82319 16.6666 7.65362 16.7369 7.5286 16.8619C7.40357 16.9869 7.33334 17.1565 7.33334 17.3333V20C7.33334 20.1768 7.40357 20.3463 7.5286 20.4714C7.65362 20.5964 7.82319 20.6666 8 20.6666H9.33334V22C9.33334 22.1768 9.40357 22.3463 9.5286 22.4714C9.65362 22.5964 9.82319 22.6666 10 22.6666H12.6667C12.8435 22.6666 13.013 22.5964 13.1381 22.4714C13.2631 22.3463 13.3333 22.1768 13.3333 22V20.6666H14.6667C14.8435 20.6666 15.013 20.5964 15.1381 20.4714C15.2631 20.3463 15.3333 20.1768 15.3333 20V17.3333ZM14 19.3333H12.6667C12.4899 19.3333 12.3203 19.4035 12.1953 19.5286C12.0702 19.6536 12 19.8231 12 20V21.3333H10.6667V20C10.6667 19.8231 10.5964 19.6536 10.4714 19.5286C10.3464 19.4035 10.1768 19.3333 10 19.3333H8.66667V18H10C10.1768 18 10.3464 17.9297 10.4714 17.8047C10.5964 17.6797 10.6667 17.5101 10.6667 17.3333V16H12V17.3333C12 17.5101 12.0702 17.6797 12.1953 17.8047C12.3203 17.9297 12.4899 18 12.6667 18H14V19.3333Z" fill="#CFD9E8"/>
<path d="M19.3333 22H15.3333V23.3333H19.3333V22Z" fill="#CFD9E8"/>
<path d="M36.4838 10.9428C36.01 10.4355 35.4371 10.0309 34.8006 9.75406C34.1641 9.4772 33.4775 9.33399 32.7833 9.33329C32.0892 9.33399 31.4025 9.4772 30.766 9.75405C30.1294 10.0309 29.5564 10.4355 29.0826 10.9428L27.333 12.7838L25.583 10.9428C25.1226 10.45 24.5686 10.0539 23.9533 9.77776C23.338 9.50161 22.6739 9.3509 21.9997 9.33446V8.99996C21.999 8.38134 21.7529 7.78825 21.3155 7.35082C20.878 6.91339 20.285 6.66733 19.6663 6.66663H7C6.38138 6.66733 5.7883 6.91339 5.35087 7.35082C4.91343 7.78825 4.66737 8.38134 4.66667 8.99996V27.5314C4.66608 28.1962 4.87497 28.8442 5.26366 29.3835C5.65235 29.9228 6.20108 30.3259 6.83192 30.5356L10.4873 31.754C12.3352 32.3657 14.331 32.3657 16.1789 31.754L19.8343 30.5356C20.4653 30.326 21.0141 29.9229 21.4028 29.3836C21.7916 28.8443 22.0006 28.1962 22 27.5314V22.6493L26.6667 27.5593V38.5C26.6667 38.5442 26.6491 38.5866 26.6179 38.6178C26.5866 38.6491 26.5442 38.6666 26.5 38.6666H19.5C19.4558 38.6666 19.4134 38.6491 19.3822 38.6178C19.3509 38.5866 19.3333 38.5442 19.3333 38.5V37.3333H20C20.1768 37.3333 20.3464 37.2631 20.4714 37.138C20.5964 37.013 20.6667 36.8434 20.6667 36.6666V33.0691L20.6782 33.0654C21.8402 32.6792 22.851 31.9366 23.567 30.9432C24.283 29.9497 24.6678 28.7559 24.6667 27.5314V26.6666H23.3333V27.5314C23.3342 28.476 23.0374 29.3969 22.485 30.1633C21.9327 30.9296 21.1529 31.5024 20.2565 31.8004L19.7892 31.9562C19.6564 32.0005 19.541 32.0853 19.4592 32.1988C19.3774 32.3123 19.3333 32.4487 19.3333 32.5886V36H18V33.4775C18 33.3719 17.9749 33.2678 17.9268 33.1738C17.8786 33.0797 17.8088 32.9985 17.7231 32.9367C17.6374 32.875 17.5383 32.8345 17.4339 32.8185C17.3294 32.8026 17.2227 32.8117 17.1225 32.8451L16.601 33.019C15.9461 33.2372 15.2711 33.3894 14.5859 33.4732C14.4243 33.4929 14.2755 33.5711 14.1675 33.693C14.0596 33.8149 14 33.9721 14 34.135V38.6666H12.6667V34.135C12.6667 33.9721 12.6071 33.8149 12.4991 33.693C12.3912 33.5711 12.2424 33.4929 12.0808 33.4732C11.3956 33.3894 10.7205 33.2372 10.0656 33.0189L9.54417 32.845C9.44396 32.8116 9.33724 32.8025 9.23282 32.8184C9.12839 32.8344 9.02924 32.8749 8.94355 32.9366C8.85785 32.9984 8.78806 33.0797 8.73992 33.1737C8.69178 33.2677 8.66667 33.3718 8.66667 33.4775V36H7.33334V32.5886C7.33332 32.4487 7.28928 32.3123 7.20746 32.1988C7.12563 32.0853 7.01017 32.0004 6.87742 31.9562L6.41075 31.8005C5.5142 31.5027 4.73432 30.9298 4.18187 30.1635C3.62943 29.3971 3.33253 28.4761 3.33334 27.5314V15.3333H2V27.5314C1.9989 28.756 2.3837 29.9498 3.09974 30.9432C3.81578 31.9367 4.82664 32.6793 5.98875 33.0655L6 33.0692V36.6666C6 36.8434 6.07024 37.013 6.19526 37.138C6.32029 37.2631 6.48986 37.3333 6.66667 37.3333H9.33334C9.51015 37.3333 9.67972 37.2631 9.80474 37.138C9.92976 37.013 10 36.8434 10 36.6666V34.3962C10.438 34.5267 10.8832 34.6315 11.3333 34.71V39.3333C11.3333 39.5101 11.4036 39.6797 11.5286 39.8047C11.6536 39.9297 11.8232 40 12 40H14.6667C14.8435 40 15.013 39.9297 15.1381 39.8047C15.2631 39.6797 15.3333 39.5101 15.3333 39.3333V34.71C15.7835 34.6315 16.2287 34.5267 16.6667 34.3962V36.6666C16.6667 36.8434 16.7369 37.013 16.8619 37.138C16.987 37.2631 17.1565 37.3333 17.3333 37.3333H18V38.5C18.0005 38.8976 18.1586 39.2789 18.4399 39.5601C18.7211 39.8413 19.1023 39.9995 19.5 40H26.5C26.8977 39.9995 27.2789 39.8413 27.5601 39.5601C27.8414 39.2789 27.9995 38.8976 28 38.5V27.5583L33.8167 21.4385L32.85 20.5198L27.3328 26.325L19.1483 17.7134C17.6149 16.1 17.6149 13.4748 19.1483 11.8615C19.4971 11.4846 19.92 11.184 20.3905 10.9784C20.861 10.7728 21.369 10.6666 21.8825 10.6666C22.3959 10.6666 22.9039 10.7728 23.3744 10.9784C23.8449 11.184 24.2679 11.4846 24.6167 11.8615L26.85 14.2108C26.9123 14.2764 26.9872 14.3286 27.0703 14.3642C27.1534 14.3999 27.2429 14.4183 27.3333 14.4183C27.4238 14.4183 27.5132 14.3999 27.5963 14.3642C27.6794 14.3286 27.7544 14.2764 27.8167 14.2108L30.05 11.8615C30.3988 11.4846 30.8218 11.184 31.2923 10.9784C31.7628 10.7728 32.2707 10.6666 32.7842 10.6666C33.2977 10.6666 33.8056 10.7728 34.2761 10.9784C34.7467 11.184 35.1696 11.4846 35.5184 11.8615C37.0518 13.4748 37.0518 16.1 35.5184 17.7134L33.7818 19.5406L34.7484 20.4593L36.4852 18.632C38.4987 16.512 38.4987 13.0627 36.4838 10.9428ZM19.4131 29.2706L15.7577 30.489C14.1835 31.0103 12.4831 31.0103 10.9089 30.489L7.25359 29.2706C6.88835 29.1493 6.57066 28.9159 6.34562 28.6037C6.12058 28.2914 5.99965 27.9162 6 27.5314V26H20.6667V27.5314C20.667 27.9162 20.5461 28.2914 20.3211 28.6037C20.096 28.9159 19.7783 29.1493 19.4131 29.2706ZM18.1818 18.632L20.6667 21.2465V24.6666H6V12.6666H17.0775C16.2833 14.6455 16.6517 17.022 18.1818 18.632ZM18.1818 10.9428C18.0623 11.0686 17.95 11.1987 17.8448 11.3333H6V8.99996C6.00029 8.73483 6.10574 8.48064 6.29321 8.29317C6.48069 8.10569 6.73487 8.00025 7 7.99996H19.6667C19.9318 8.00025 20.186 8.10569 20.3735 8.29317C20.5609 8.48064 20.6664 8.73483 20.6667 8.99996V9.48121C19.7156 9.72076 18.8533 10.228 18.1818 10.9428Z" fill="#CFD9E8"/>
<path d="M29.381 17.7524L28.5357 19.8659L25.8987 15.6467C25.8359 15.5463 25.7475 15.4644 25.6426 15.4094C25.5377 15.3545 25.42 15.3285 25.3017 15.3341C25.1834 15.3397 25.0688 15.3768 24.9695 15.4414C24.8703 15.506 24.7901 15.5959 24.7371 15.7019L23.588 18H22V19.3334H24C24.1238 19.3334 24.2452 19.2989 24.3505 19.2338C24.4558 19.1687 24.5409 19.0756 24.5962 18.9649L25.398 17.3614L28.1013 21.6864C28.1612 21.7823 28.2445 21.8614 28.3434 21.9163C28.4423 21.9712 28.5536 22 28.6667 22C28.6864 22 28.7063 21.9991 28.7261 21.9974C28.8488 21.9865 28.966 21.9417 29.0648 21.8682C29.1636 21.7946 29.2401 21.6952 29.2858 21.5808L30.4514 18.6667H33.3333V17.3334H30C29.8668 17.3334 29.7366 17.3733 29.6262 17.448C29.5159 17.5227 29.4305 17.6287 29.381 17.7524Z" fill="#CFD9E8"/>
</svg>
