<svg width="30" height="30" viewBox="0 0 30 30" fill="none" xmlns="http://www.w3.org/2000/svg">
<g clip-path="url(#clip0_102_65)">
<path d="M26.8898 3.90721H25.0065V2.41463C25.0065 1.98483 24.6549 1.63318 24.2251 1.63318C23.7953 1.63318 23.4436 1.98483 23.4436 2.41463V3.90721H15.7854V2.41463C15.7854 1.98483 15.4337 1.63318 15.0039 1.63318C14.5741 1.63318 14.2225 1.98483 14.2225 2.41463V3.90721H6.48607V2.41463C6.48607 1.98483 6.13441 1.63318 5.70461 1.63318C5.27482 1.63318 4.92316 1.98483 4.92316 2.41463V3.90721H3.118C1.3988 3.90721 0 5.3529 0 7.0721V25.2409C0 26.9679 1.39099 28.3667 3.118 28.3667H26.882C28.609 28.3667 30 26.9679 30 25.2487V7.0721C30.0078 5.3529 28.609 3.90721 26.8898 3.90721ZM28.4449 25.2409C28.4449 26.1005 27.7572 26.796 26.8976 26.8038H26.8898H3.118C2.2584 26.8038 1.56291 26.1083 1.56291 25.2487V25.2409V7.0721C1.56291 6.20468 2.2584 5.47012 3.118 5.47012H4.92316V6.60322C4.92316 7.03302 5.27482 7.38468 5.70461 7.38468C6.13441 7.38468 6.48607 7.03302 6.48607 6.60322V5.47012H14.2225V6.60322C14.2225 7.03302 14.5741 7.38468 15.0039 7.38468C15.4337 7.38468 15.7854 7.03302 15.7854 6.60322V5.47012H23.4436V6.60322C23.4436 7.03302 23.7953 7.38468 24.2251 7.38468C24.6549 7.38468 25.0065 7.03302 25.0065 6.60322V5.47012H26.8898C27.7572 5.47012 28.4449 6.2125 28.4449 7.0721V25.2409Z" fill="#CFD9E8"/>
<path d="M12.9487 10.5497H11.5811C11.1513 10.5497 10.7997 10.9013 10.7997 11.3311C10.7997 11.7609 11.1513 12.1126 11.5811 12.1126H12.9487C13.3785 12.1126 13.7301 11.7609 13.7301 11.3311C13.7301 10.9013 13.3785 10.5497 12.9487 10.5497Z" fill="#CFD9E8"/>
<path d="M18.3876 10.5497H17.0201C16.5903 10.5497 16.2386 10.9013 16.2386 11.3311C16.2386 11.7609 16.5903 12.1126 17.0201 12.1126H18.3876C18.8174 12.1126 19.1691 11.7609 19.1691 11.3311C19.1691 10.9013 18.8252 10.5497 18.3876 10.5497Z" fill="#CFD9E8"/>
<path d="M23.8734 10.5497H22.5059C22.0761 10.5497 21.7244 10.9013 21.7244 11.3311C21.7244 11.7609 22.0761 12.1126 22.5059 12.1126H23.8734C24.3032 12.1126 24.6549 11.7609 24.6549 11.3311C24.6549 10.9013 24.3032 10.5497 23.8734 10.5497Z" fill="#CFD9E8"/>
<path d="M12.9487 15.9417H11.5811C11.1513 15.9417 10.7997 16.2933 10.7997 16.7231C10.7997 17.1529 11.1513 17.5046 11.5811 17.5046H12.9487C13.3785 17.5046 13.7301 17.1529 13.7301 16.7231C13.7301 16.2933 13.3785 15.9417 12.9487 15.9417Z" fill="#CFD9E8"/>
<path d="M7.4707 15.9417H6.09534C5.66554 15.9417 5.31388 16.2933 5.31388 16.7231C5.31388 17.1529 5.66554 17.5046 6.09534 17.5046H7.46288C7.89268 17.5046 8.24434 17.1529 8.24434 16.7231C8.24434 16.2933 7.9005 15.9417 7.4707 15.9417Z" fill="#CFD9E8"/>
<path d="M18.3876 15.9417H17.0201C16.5903 15.9417 16.2386 16.2933 16.2386 16.7231C16.2386 17.1529 16.5903 17.5046 17.0201 17.5046H18.3876C18.8174 17.5046 19.1691 17.1529 19.1691 16.7231C19.1691 16.2933 18.8252 15.9417 18.3876 15.9417Z" fill="#CFD9E8"/>
<path d="M23.8734 15.9417H22.5059C22.0761 15.9417 21.7244 16.2933 21.7244 16.7231C21.7244 17.1529 22.0761 17.5046 22.5059 17.5046H23.8734C24.3032 17.5046 24.6549 17.1529 24.6549 16.7231C24.6549 16.2933 24.3032 15.9417 23.8734 15.9417Z" fill="#CFD9E8"/>
<path d="M12.9487 21.2555H11.5811C11.1513 21.2555 10.7997 21.6071 10.7997 22.0369C10.7997 22.4667 11.1513 22.8184 11.5811 22.8184H12.9487C13.3785 22.8184 13.7301 22.4667 13.7301 22.0369C13.7301 21.6071 13.3785 21.2555 12.9487 21.2555Z" fill="#CFD9E8"/>
<path d="M7.4707 21.2555H6.09534C5.66554 21.2555 5.31388 21.6071 5.31388 22.0369C5.31388 22.4667 5.66554 22.8184 6.09534 22.8184H7.46288C7.89268 22.8184 8.24434 22.4667 8.24434 22.0369C8.24434 21.6071 7.9005 21.2555 7.4707 21.2555Z" fill="#CFD9E8"/>
<path d="M18.3876 21.2555H17.0201C16.5903 21.2555 16.2386 21.6071 16.2386 22.0369C16.2386 22.4667 16.5903 22.8184 17.0201 22.8184H18.3876C18.8174 22.8184 19.1691 22.4667 19.1691 22.0369C19.1691 21.6071 18.8252 21.2555 18.3876 21.2555Z" fill="#CFD9E8"/>
</g>
<defs>
<clipPath id="clip0_102_65">
<rect width="30" height="30" fill="white"/>
</clipPath>
</defs>
</svg>
