<svg width="45" height="45" viewBox="0 0 45 45" fill="none" xmlns="http://www.w3.org/2000/svg">
<path d="M22.4848 24.9792C17.0003 24.8005 15.685 20.1047 15.4034 18.5886C14.8754 18.4663 14.405 18.1675 14.0698 17.7415C13.6872 17.2143 13.5097 16.5658 13.5706 15.9172C13.5271 15.5678 13.5575 15.2131 13.6597 14.8761C13.7619 14.5391 13.9338 14.2273 14.1641 13.9609C14.2941 13.8277 14.4436 13.7149 14.6074 13.6265C13.588 11.9808 13.086 10.067 13.1662 8.13283C13.801 3.59634 17.457 3.15486 18.6021 3.12931C19.129 2.51636 19.7878 2.03052 20.5291 1.70817C21.9177 1.14805 23.4525 1.06254 24.8948 1.46492C27.7298 2.20499 29.6204 3.62431 30.5173 5.68398C31.7943 8.61141 30.6742 11.9809 30.0308 13.4939C30.2762 13.5736 30.5023 13.7035 30.6949 13.8752C30.9569 14.1412 31.1543 14.4638 31.272 14.8182C31.3897 15.1725 31.4244 15.5492 31.3735 15.919C31.4349 16.5676 31.2576 17.2162 30.8749 17.7434C30.5394 18.1692 30.0688 18.468 29.5407 18.5905C29.2591 20.1047 27.9468 24.8005 22.4848 24.9792ZM15.6235 14.5988C15.4079 14.5888 15.1969 14.6639 15.0361 14.808C14.9248 14.9639 14.8455 15.1403 14.8028 15.3271C14.7601 15.5138 14.7549 15.7072 14.7874 15.8959C14.7899 15.9365 14.7885 15.9773 14.7831 16.0176C14.7501 16.3666 14.8402 16.7162 15.0379 17.0057C15.1612 17.1435 15.3108 17.2552 15.4779 17.3344C15.645 17.4135 15.8262 17.4585 16.0109 17.4667C16.1499 17.4831 16.2791 17.547 16.3764 17.6476C16.4738 17.7482 16.5335 17.8793 16.5454 18.0188C16.5655 18.2451 17.1049 23.5873 22.486 23.7636C27.8374 23.5873 28.3792 18.2451 28.3993 18.0176C28.4115 17.8783 28.4713 17.7475 28.5686 17.6472C28.666 17.5468 28.795 17.4831 28.9338 17.4667C29.1185 17.4586 29.2997 17.4136 29.4668 17.3345C29.6339 17.2553 29.7835 17.1435 29.9068 17.0057C30.1054 16.7148 30.1955 16.3633 30.1616 16.0127C30.1565 15.9736 30.1551 15.9341 30.1573 15.8947C30.1902 15.6998 30.1828 15.5001 30.1356 15.3081C30.0885 15.1161 30.0025 14.9358 29.8831 14.7782C29.6931 14.6383 29.4568 14.5765 29.2227 14.6055C29.1101 14.6255 28.9942 14.6133 28.8883 14.5705C28.7823 14.5276 28.6906 14.4557 28.6237 14.3631C28.5567 14.2705 28.5172 14.1609 28.5096 14.0468C28.5021 13.9328 28.5269 13.8189 28.5811 13.7183C28.6036 13.6757 30.8311 9.44817 29.3996 6.16256C28.6583 4.46472 27.0402 3.27952 24.5889 2.63979C23.4107 2.30638 22.1555 2.37049 21.0175 2.82222C20.37 3.10117 19.8057 3.54275 19.3792 4.10411C19.3178 4.18762 19.2359 4.25388 19.1414 4.29649C19.0469 4.3391 18.9431 4.35662 18.8398 4.34736C18.6823 4.33459 14.9589 4.09377 14.3751 8.25628C14.3751 8.25628 14.2066 11.5674 16.1246 13.5742C16.2082 13.6616 16.2638 13.7719 16.2844 13.891C16.305 14.0102 16.2896 14.1327 16.2402 14.2431C16.1946 14.3563 16.1143 14.4521 16.0108 14.5167C15.9073 14.5813 15.786 14.6113 15.6643 14.6025L15.6235 14.5988Z" fill="#CFD9E8"/>
<path d="M29.1166 14.6134C28.9596 14.6135 28.8087 14.553 28.6953 14.4444C28.582 14.3358 28.515 14.1876 28.5084 14.0308C28.5012 13.8733 28.3126 10.1997 25.5701 9.84644C24.3157 10.0057 23.0419 9.90642 21.8273 9.5546C20.6128 9.20277 19.4832 8.60589 18.5081 7.80076C17.7328 8.38394 15.9462 10.1566 16.2897 13.9372C16.2943 14.0919 16.2396 14.2426 16.1369 14.3584C16.0342 14.4743 15.8912 14.5466 15.737 14.5606C15.5829 14.5746 15.4291 14.5294 15.3072 14.434C15.1853 14.3386 15.1043 14.2003 15.0808 14.0472C14.5767 8.50069 18.1384 6.57542 18.2898 6.49637C18.4025 6.43754 18.5308 6.41553 18.6567 6.43342C18.7826 6.45131 18.8997 6.5082 18.9916 6.5961C19.8583 7.38116 20.8844 7.96977 21.9996 8.32168C23.1149 8.67359 24.2929 8.7805 25.4533 8.63508C25.509 8.62608 25.5656 8.62404 25.6218 8.629C28.7134 8.95069 29.6578 12.2722 29.7247 13.9804C29.7309 14.1413 29.6731 14.2981 29.5639 14.4164C29.4547 14.5347 29.303 14.6049 29.1421 14.6116L29.1166 14.6134Z" fill="#CFD9E8"/>
<path d="M39.5811 43.7838H5.41875C5.25747 43.7838 5.10279 43.7197 4.98875 43.6057C4.87471 43.4916 4.81064 43.337 4.81064 43.1757V36.3965C4.81499 34.2538 5.66886 32.2004 7.18501 30.6864C8.70117 29.1724 10.7558 28.3215 12.8985 28.3202H14.066C14.2273 28.3202 14.382 28.3843 14.496 28.4983C14.6101 28.6123 14.6742 28.767 14.6742 28.9283C14.6742 29.0896 14.6101 29.2443 14.496 29.3583C14.382 29.4723 14.2273 29.5364 14.066 29.5364H12.8985C11.0783 29.5374 9.33279 30.2601 8.04465 31.546C6.75651 32.832 6.03088 34.5763 6.02686 36.3965V42.5676H38.9729V36.3965C38.9709 34.5777 38.2474 32.834 36.9614 31.548C35.6753 30.2619 33.9316 29.5385 32.1129 29.5364H30.8614C30.7001 29.5364 30.5454 29.4723 30.4314 29.3583C30.3173 29.2443 30.2533 29.0896 30.2533 28.9283C30.2533 28.767 30.3173 28.6123 30.4314 28.4983C30.5454 28.3843 30.7001 28.3202 30.8614 28.3202H32.1129C34.2539 28.3232 36.3064 29.1751 37.8203 30.6891C39.3342 32.203 40.1861 34.2555 40.1892 36.3965V43.1757C40.1892 43.337 40.1251 43.4916 40.0111 43.6057C39.897 43.7197 39.7423 43.7838 39.5811 43.7838Z" fill="#CFD9E8"/>
<path d="M24.532 43.7837C24.4445 43.7837 24.358 43.7649 24.2785 43.7284C24.1989 43.6919 24.1281 43.6387 24.071 43.5723C24.0139 43.506 23.9718 43.4281 23.9476 43.344C23.9234 43.2599 23.9176 43.1716 23.9306 43.085L26.3916 26.798C26.4047 26.7119 26.4361 26.6295 26.4837 26.5566C26.5313 26.4836 26.5941 26.4217 26.6677 26.3751C26.7414 26.3285 26.8242 26.2983 26.9105 26.2865C26.9969 26.2747 27.0847 26.2816 27.1682 26.3067L31.4152 27.5868C31.4998 27.6123 31.5778 27.6559 31.6438 27.7146C31.7098 27.7733 31.7622 27.8457 31.7974 27.9267C31.8326 28.0078 31.8497 28.0955 31.8476 28.1838C31.8454 28.2721 31.824 28.3589 31.7849 28.4381L30.0968 31.8253L31.0759 32.9241C31.1626 33.0222 31.2154 33.1457 31.2264 33.2762C31.2373 33.4067 31.2059 33.5372 31.1367 33.6484L25.0489 43.4955C24.9944 43.5836 24.9184 43.6563 24.8279 43.7067C24.7375 43.7572 24.6356 43.7837 24.532 43.7837ZM27.4899 27.6737L25.5774 40.3303L29.8664 33.3978L28.9159 32.3306C28.835 32.2399 28.7832 32.1271 28.767 32.0067C28.7509 31.8863 28.7712 31.7638 28.8253 31.655L30.3747 28.5451L27.4899 27.6737Z" fill="#CFD9E8"/>
<path d="M20.3978 43.7838C20.2941 43.7838 20.1922 43.7574 20.1016 43.7069C20.011 43.6565 19.9348 43.5837 19.8803 43.4955L13.7907 33.6503C13.7215 33.5391 13.69 33.4086 13.701 33.2781C13.712 33.1476 13.7647 33.0241 13.8515 32.926L14.8306 31.8272L13.1425 28.44C13.1034 28.3608 13.082 28.274 13.0798 28.1857C13.0777 28.0974 13.0948 28.0097 13.13 27.9286C13.1652 27.8476 13.2176 27.7752 13.2836 27.7165C13.3496 27.6578 13.4276 27.6142 13.5122 27.5887L17.7592 26.3086C17.8426 26.2836 17.9304 26.2768 18.0167 26.2886C18.103 26.3005 18.1857 26.3307 18.2593 26.3773C18.3328 26.4239 18.3955 26.4857 18.4431 26.5586C18.4907 26.6316 18.5221 26.7138 18.5352 26.7999L20.9974 43.0869C21.0101 43.1731 21.0042 43.2611 20.9799 43.3449C20.9556 43.4286 20.9136 43.5062 20.8568 43.5723C20.7999 43.6384 20.7295 43.6915 20.6503 43.728C20.5711 43.7645 20.485 43.7835 20.3978 43.7838ZM15.0635 33.3961L19.3525 40.3285L17.44 27.6738L14.5551 28.5434L16.1039 31.6532C16.1581 31.762 16.1785 31.8844 16.1625 32.0048C16.1465 32.1253 16.0947 32.2381 16.0139 32.3289L15.0635 33.3961Z" fill="#CFD9E8"/>
<path d="M22.5105 32.4456C21.1956 32.4446 19.882 32.365 18.5766 32.2072C18.4957 32.1998 18.417 32.1762 18.3453 32.1379C18.2737 32.0996 18.2104 32.0472 18.1593 31.984C18.1082 31.9208 18.0702 31.848 18.0477 31.7699C18.0252 31.6918 18.0186 31.61 18.0283 31.5292C18.038 31.4485 18.0638 31.3706 18.1041 31.3C18.1444 31.2294 18.1985 31.1676 18.2631 31.1183C18.3277 31.069 18.4015 31.0331 18.4802 31.0128C18.559 30.9925 18.6409 30.9882 18.7214 31.0001C21.2067 31.3057 23.72 31.3057 26.2053 31.0001C26.3638 30.983 26.5227 31.0288 26.6478 31.1276C26.7729 31.2265 26.8541 31.3705 26.8741 31.5287C26.894 31.6868 26.851 31.8465 26.7544 31.9733C26.6577 32.1001 26.5152 32.1839 26.3574 32.2066C25.0813 32.3667 23.7965 32.4466 22.5105 32.4456Z" fill="#CFD9E8"/>
<path d="M26.9945 27.4969C26.8998 27.4965 26.8066 27.4741 26.7221 27.4313C26.6377 27.3885 26.5643 27.3267 26.508 27.2506C25.6044 26.0289 25.4408 23.6074 25.4256 23.3356C25.4163 23.1746 25.4713 23.0166 25.5785 22.8962C25.6857 22.7758 25.8363 22.7028 25.9972 22.6934C26.1577 22.6859 26.3148 22.7415 26.4348 22.8483C26.5548 22.9552 26.6283 23.1047 26.6394 23.265C26.6765 23.9048 26.9015 25.7382 27.4852 26.5275C27.552 26.6179 27.5923 26.725 27.6019 26.8369C27.6115 26.9488 27.5899 27.0611 27.5395 27.1615C27.4892 27.2619 27.412 27.3464 27.3165 27.4056C27.2211 27.4648 27.1111 27.4964 26.9988 27.4969H26.9945Z" fill="#CFD9E8"/>
<path d="M17.9356 27.4968C17.8233 27.4963 17.7133 27.4647 17.6179 27.4055C17.5224 27.3464 17.4452 27.2619 17.3948 27.1615C17.3445 27.0611 17.3229 26.9487 17.3324 26.8368C17.342 26.7249 17.3824 26.6179 17.4491 26.5275C18.0341 25.737 18.2585 23.9041 18.2956 23.265C18.3003 23.1852 18.3206 23.107 18.3554 23.035C18.3903 22.963 18.4389 22.8985 18.4987 22.8454C18.5584 22.7922 18.6281 22.7513 18.7036 22.725C18.7792 22.6987 18.8591 22.6876 18.939 22.6922C19.0189 22.6968 19.097 22.7171 19.169 22.752C19.241 22.7868 19.3055 22.8355 19.3587 22.8952C19.4119 22.955 19.4528 23.0246 19.479 23.1002C19.5053 23.1757 19.5165 23.2557 19.5118 23.3356C19.4966 23.6074 19.3294 26.0289 18.4294 27.2505C18.3724 27.3276 18.2979 27.3901 18.2121 27.4329C18.1262 27.4757 18.0315 27.4976 17.9356 27.4968Z" fill="#CFD9E8"/>
<path d="M34.7563 35.2605C34.5981 35.2606 34.446 35.199 34.3325 35.0887C34.2189 34.9785 34.1528 34.8283 34.1482 34.6701C34.0345 30.71 32.5288 29.464 32.5142 29.4519C32.3886 29.3521 32.3071 29.207 32.2873 29.0478C32.2675 28.8886 32.311 28.728 32.4084 28.6005C32.5051 28.4741 32.6478 28.3909 32.8055 28.369C32.9632 28.3471 33.1232 28.3884 33.2507 28.4838C33.3309 28.5446 35.2313 30.0205 35.3645 34.6348C35.369 34.7959 35.3095 34.9522 35.1989 35.0694C35.0883 35.1866 34.9357 35.2552 34.7746 35.2599L34.7563 35.2605Z" fill="#CFD9E8"/>
<path d="M34.7596 38.8508C34.2842 38.8509 33.8193 38.71 33.424 38.446C33.0286 38.1819 32.7204 37.8065 32.5383 37.3673C32.3563 36.928 32.3086 36.4447 32.4013 35.9783C32.494 35.512 32.7229 35.0836 33.059 34.7474C33.3952 34.4111 33.8235 34.1821 34.2898 34.0893C34.7561 33.9965 35.2395 34.0441 35.6788 34.226C36.1181 34.4079 36.4935 34.716 36.7577 35.1114C37.0219 35.5067 37.1629 35.9715 37.1629 36.4469C37.1622 37.0842 36.9088 37.6951 36.4583 38.1458C36.0078 38.5964 35.3969 38.85 34.7596 38.8508ZM34.7596 35.2593C34.5247 35.2592 34.295 35.3287 34.0996 35.4592C33.9043 35.5896 33.7519 35.775 33.662 35.992C33.572 36.209 33.5484 36.4478 33.5941 36.6783C33.6399 36.9087 33.7529 37.1204 33.919 37.2865C34.0851 37.4527 34.2967 37.5658 34.5271 37.6117C34.7575 37.6576 34.9963 37.6341 35.2134 37.5442C35.4304 37.4544 35.6159 37.3021 35.7465 37.1068C35.877 36.9115 35.9467 36.6819 35.9467 36.4469C35.9463 36.1322 35.8212 35.8304 35.5987 35.6077C35.3761 35.3851 35.0744 35.2598 34.7596 35.2593Z" fill="#CFD9E8"/>
<path d="M9.77969 35.2605C9.62562 35.2609 9.47714 35.2028 9.36427 35.0979C9.25139 34.993 9.18252 34.8492 9.17158 34.6956C8.84016 30.0283 11.4118 28.5367 11.5213 28.4752C11.6618 28.396 11.828 28.3758 11.9834 28.419C12.1388 28.4623 12.2706 28.5655 12.3498 28.706C12.4291 28.8465 12.4493 29.0127 12.4061 29.1681C12.3628 29.3235 12.2595 29.4553 12.1191 29.5346C12.0266 29.5893 10.1123 30.7708 10.3841 34.6098C10.3955 34.7707 10.3425 34.9295 10.2368 35.0513C10.1311 35.1731 9.98131 35.2479 9.82043 35.2593L9.77969 35.2605Z" fill="#CFD9E8"/>
<path d="M8.54959 40.1297C8.45549 40.1301 8.36257 40.1087 8.27816 40.0671C8.19374 40.0255 8.12012 39.9649 8.0631 39.8901C7.76626 39.5003 7.54759 39.0567 7.41911 38.5839C7.13682 37.6629 7.22944 36.6676 7.67682 35.8145C8.12421 34.9614 8.89022 34.3194 9.80837 34.0279C10.2439 33.9054 10.6994 33.871 11.1484 33.9265C11.5973 33.9821 12.0307 34.1265 12.4232 34.3514C13.1111 34.7489 13.6613 35.3468 14.0004 36.0653C14.3394 36.7837 14.4511 37.5886 14.3205 38.3722C14.2941 38.5313 14.2055 38.6734 14.0743 38.7672C13.9431 38.861 13.78 38.8989 13.6209 38.8724C13.4618 38.846 13.3197 38.7574 13.2259 38.6262C13.1321 38.495 13.0943 38.3319 13.1207 38.1728C13.21 37.6358 13.1342 37.0844 12.9033 36.5915C12.6725 36.0985 12.2975 35.6872 11.8279 35.412C11.5747 35.2658 11.2949 35.1715 11.0048 35.1346C10.7148 35.0978 10.4203 35.1191 10.1386 35.1973C9.52923 35.4011 9.02482 35.8369 8.73475 36.4102C8.44468 36.9835 8.39235 37.6481 8.58911 38.2597C8.67711 38.5835 8.82704 38.887 9.0306 39.1537C9.09908 39.2438 9.14105 39.3512 9.15178 39.4639C9.16251 39.5766 9.14157 39.6901 9.09133 39.7915C9.04109 39.8929 8.96353 39.9783 8.86739 40.0381C8.77125 40.0978 8.66035 40.1295 8.54715 40.1297H8.54959Z" fill="#CFD9E8"/>
<path d="M13.7289 38.8818C13.7052 38.8818 13.6809 38.8818 13.6566 38.8782L12.9712 38.7973C12.8919 38.7879 12.8152 38.7629 12.7455 38.7238C12.6758 38.6848 12.6145 38.6324 12.565 38.5696C12.5156 38.5068 12.479 38.4349 12.4573 38.358C12.4357 38.2811 12.4294 38.2007 12.4388 38.1214C12.4482 38.042 12.4732 37.9653 12.5123 37.8956C12.5513 37.8259 12.6037 37.7646 12.6665 37.7152C12.7933 37.6153 12.9545 37.5699 13.1147 37.589L13.8001 37.6705C13.954 37.6888 14.0951 37.7651 14.1946 37.884C14.2941 38.0029 14.3444 38.1552 14.3353 38.31C14.3262 38.4647 14.2584 38.6101 14.1457 38.7165C14.033 38.8229 13.8839 38.8823 13.7289 38.8824V38.8818Z" fill="#CFD9E8"/>
<path d="M8.54925 40.1351C8.40647 40.1353 8.26817 40.0853 8.15858 39.9938C8.049 39.9022 7.97512 39.775 7.94988 39.6345C7.92465 39.494 7.94967 39.349 8.02056 39.2251C8.09145 39.1012 8.2037 39.0061 8.33763 38.9566L9.06736 38.6872C9.14222 38.6593 9.22186 38.6464 9.30173 38.6492C9.38159 38.652 9.46012 38.6705 9.53282 38.7037C9.60552 38.7369 9.67098 38.7841 9.72545 38.8425C9.77992 38.901 9.82235 38.9696 9.8503 39.0445C9.87825 39.1194 9.89118 39.199 9.88835 39.2789C9.88552 39.3587 9.86699 39.4373 9.83382 39.51C9.80064 39.5827 9.75347 39.6481 9.695 39.7026C9.63653 39.7571 9.5679 39.7995 9.49303 39.8274L8.7633 40.0974C8.69479 40.1228 8.62229 40.1355 8.54925 40.1351Z" fill="#CFD9E8"/>
</svg>
