<svg width="30" height="27" viewBox="0 0 30 27" fill="none" xmlns="http://www.w3.org/2000/svg">
<g filter="url(#filter0_d_116_213)">
<path d="M11.9997 4.5H17.9997L20.2211 1.16578C20.3762 0.9375 20.3903 0.638438 20.2637 0.398438C20.1278 0.152344 19.8747 0 19.6028 0H10.3637C10.0824 0 9.83029 0.152344 9.70139 0.398438C9.56685 0.638438 9.62779 0.9375 9.77779 1.16625L11.9997 4.5ZM17.9997 6H11.9997C2.51216 11.4094 3.00435 18.5906 3.00435 19.5C3.00435 21.9844 5.30638 24 8.14185 24H21.8528C24.6948 24 26.995 21.9844 26.995 19.5C26.995 18.6094 27.4356 11.3813 17.9997 6ZM18.3325 17.2406C18.1385 18.36 17.312 19.1161 16.1294 19.3847V19.875C16.1294 20.4961 15.6245 21 15.0034 21C14.3823 21 13.8794 20.4961 13.8794 19.875V19.3406C13.4328 19.2366 12.9911 19.0943 12.5931 18.9508L12.3749 18.8732C11.7903 18.6652 11.4828 18.0219 11.6909 17.4369C11.8991 16.8519 12.5403 16.5463 13.1281 16.7521L13.3552 16.8341C13.7683 16.9828 14.2355 17.1513 14.5974 17.2055C15.3929 17.3329 16.0594 17.1769 16.1152 16.859C16.1533 16.6386 16.1767 16.5053 14.6911 16.0804L14.3865 15.9925C13.5338 15.7413 11.2721 15.0761 11.6719 12.7572C11.8637 11.6391 12.6934 10.8844 13.8794 10.6172V10.125C13.8794 9.50391 14.3823 9 15.0034 9C15.6245 9 16.1294 9.50391 16.1294 10.125V10.6523C16.4067 10.7163 16.7026 10.7975 17.058 10.921C17.6453 11.1247 17.9561 11.7657 17.7522 12.3531C17.5471 12.9399 16.9028 13.2526 16.3197 13.0468C15.9344 12.9128 15.6344 12.83 15.4014 12.7934C14.6059 12.6703 13.945 12.8203 13.8887 13.1391C13.8559 13.3312 13.8278 13.4813 15.0184 13.8328L15.3085 13.917C16.5044 14.2594 18.7356 14.8969 18.3325 17.2406Z" fill="#0D428E"/>
</g>
<defs>
<filter id="filter0_d_116_213" x="-1" y="0" width="31.9982" height="32" filterUnits="userSpaceOnUse" color-interpolation-filters="sRGB">
<feFlood flood-opacity="0" result="BackgroundImageFix"/>
<feColorMatrix in="SourceAlpha" type="matrix" values="0 0 0 0 0 0 0 0 0 0 0 0 0 0 0 0 0 0 127 0" result="hardAlpha"/>
<feOffset dy="4"/>
<feGaussianBlur stdDeviation="2"/>
<feComposite in2="hardAlpha" operator="out"/>
<feColorMatrix type="matrix" values="0 0 0 0 0 0 0 0 0 0 0 0 0 0 0 0 0 0 0.25 0"/>
<feBlend mode="normal" in2="BackgroundImageFix" result="effect1_dropShadow_116_213"/>
<feBlend mode="normal" in="SourceGraphic" in2="effect1_dropShadow_116_213" result="shape"/>
</filter>
</defs>
</svg>
