<svg width="36" height="40" viewBox="0 0 36 40" fill="none" xmlns="http://www.w3.org/2000/svg">
<path d="M27.3333 28.6666H26.6667C26.4899 28.6666 26.3203 28.7369 26.1953 28.8619L20 35.0573L13.8047 28.8619C13.6797 28.7369 13.5101 28.6666 13.3333 28.6666L12.5999 28.6699C4.47461 29.4827 0 33.2666 0 39.3333C0 39.7015 0.298503 40 0.666667 40C1.03483 40 1.33333 39.7015 1.33333 39.3333C1.33333 33.3678 6.13867 31.0739 10.792 30.2581L10.07 31.7021C9.90527 32.0315 10.0391 32.4323 10.3688 32.5966L12.6667 33.7454V36C12.6667 36.2946 12.86 36.554 13.1419 36.6386L19.3333 38.4961V39.3333C19.3333 39.7015 19.6318 40 20 40C20.3682 40 20.6667 39.7015 20.6667 39.3333V38.4961L26.8581 36.6386C27.14 36.554 27.3333 36.2946 27.3333 36V33.7454L29.6312 32.5999C29.9609 32.4355 30.0947 32.0348 29.93 31.7054L29.2106 30.2666C33.8932 31.0892 38.6667 33.3886 38.6667 39.3333C38.6667 39.7015 38.9652 40 39.3333 40C39.7015 40 40 39.7015 40 39.3333C40 33.2666 35.5254 29.4827 27.3333 28.6666ZM14 35.5039V33.3333C14.0013 33.0794 13.8584 32.8466 13.6312 32.7334L11.5612 31.6985L12.3962 30.0319C12.486 30.0221 12.5775 30.0087 12.6667 30H13.0573L19.3333 36.276V37.1038L14 35.5039ZM28.4388 31.7041L26.3688 32.7386C26.1432 32.8512 26.0007 33.0813 26 33.3333V35.5039L20.6667 37.1038V36.276L26.9447 30H27.2666C27.3786 30.0114 27.4935 30.0273 27.6061 30.04L28.4388 31.7041Z" fill="#CFD9E8"/>
<path d="M7.58992 23.1927C10.0626 25.014 12.9555 26.18 16.0001 26.582V28.6667C16.0001 29.0348 16.2986 29.3333 16.6667 29.3333C17.0349 29.3333 17.3334 29.0348 17.3334 28.6667V26.6247C18.1635 27.0433 19.0717 27.2848 20.0001 27.3333C20.9285 27.2848 21.8367 27.0433 22.6667 26.6247V28.6667C22.6667 29.0348 22.9652 29.3333 23.3334 29.3333C23.7016 29.3333 24.0001 29.0348 24.0001 28.6667V26.582C27.045 26.18 29.9382 25.0137 32.4109 23.1921C33.99 21.958 33.5082 17.238 30.8474 7.89062C30.7869 7.67611 30.738 7.50586 30.7012 7.37467L31.9529 4.2474C32.0762 3.93913 31.9545 3.58691 31.6667 3.42122C26.6954 0.582031 23.4073 0 20.0001 0C16.5928 0 13.3048 0.582031 8.33341 3.42122C8.04467 3.58626 7.92163 3.93848 8.04467 4.2474L9.29597 7.37467C9.25952 7.50814 9.21069 7.67611 9.15014 7.89062C6.49194 17.238 6.01017 21.958 7.58992 23.1927ZM12.6667 18.6667V15.1048C16.3461 14.4821 19.9024 13.2747 23.1999 11.528C23.9721 12.3945 25.712 14.2139 27.3334 14.9785V18.6667C27.3334 22.6055 22.4148 26 20.0001 26C17.5854 26 12.6667 22.6055 12.6667 18.6667ZM10.0001 16.6667C10.0001 15.9303 10.5971 15.3333 11.3334 15.3333V18C10.5971 18 10.0001 17.403 10.0001 16.6667ZM28.6667 15.3333C29.4031 15.3333 30.0001 15.9303 30.0001 16.6667C30.0001 17.403 29.4031 18 28.6667 18V15.3333ZM20.0001 1.33333C23.0795 1.33333 26.0668 1.84668 30.4975 4.2946L28.3334 9.69857C25.6726 8.31803 21.5046 8 20.0001 8C18.4955 8 14.3275 8.31803 11.6667 9.69857L9.50268 4.2946C13.9333 1.84668 16.9206 1.33333 20.0001 1.33333ZM10.7139 10.9141C10.7888 11.1016 10.9447 11.2451 11.1378 11.3044C11.3308 11.3636 11.5404 11.332 11.7074 11.2188C13.7374 9.84538 17.8715 9.33333 20.0001 9.33333C22.1287 9.33333 26.2628 9.84538 28.2927 11.2188C28.4597 11.332 28.6693 11.3636 28.8624 11.3044C29.0554 11.2451 29.2113 11.1016 29.2862 10.9141L29.8861 9.40853C32.8399 20.1178 31.9447 21.862 31.588 22.1419C29.6824 23.5352 27.5066 24.5146 25.1999 25.0179C26.9333 23.5941 28.3754 21.61 28.6179 19.3333H28.6667C30.1394 19.3333 31.3334 18.1393 31.3334 16.6667C31.3334 15.194 30.1394 14 28.6667 14C27.4395 14 25.058 11.6934 23.8455 10.2393C23.6274 9.97787 23.2475 9.92285 22.9639 10.1113C22.9255 10.1374 18.9639 12.7194 11.2234 14.0094C9.75333 14.0397 8.58601 15.2562 8.61629 16.7262C8.64689 18.1966 9.86336 19.3636 11.3334 19.3333H11.3813C11.6241 21.61 13.0642 23.5941 14.7996 25.0179C12.4929 24.5143 10.3168 23.5345 8.41088 22.1413C8.05346 21.862 7.15795 20.1178 10.1121 9.40788L10.7139 10.9141Z" fill="#CFD9E8"/>
<path d="M21.5825 21.4808C20.6398 22.1693 19.3599 22.1693 18.4172 21.4808C18.2326 21.3213 17.9758 21.2751 17.7476 21.3607C17.5191 21.4463 17.3557 21.6498 17.3211 21.891C17.287 22.1325 17.3872 22.3734 17.5825 22.5192C19.0096 23.6101 20.9901 23.6101 22.4172 22.5192C22.6125 22.3734 22.7127 22.1325 22.6786 21.891C22.6441 21.6498 22.4807 21.4463 22.2521 21.3607C22.0239 21.2751 21.7671 21.3213 21.5825 21.4808Z" fill="#CFD9E8"/>
<path d="M25.3333 16.6667C25.3333 17.403 24.7363 18 24 18C23.2637 18 22.6667 17.403 22.6667 16.6667C22.6667 15.9304 23.2637 15.3334 24 15.3334C24.7363 15.3334 25.3333 15.9304 25.3333 16.6667Z" fill="#CFD9E8"/>
<path d="M17.3333 16.6667C17.3333 17.403 16.7363 18 16 18C15.2637 18 14.6667 17.403 14.6667 16.6667C14.6667 15.9304 15.2637 15.3334 16 15.3334C16.7363 15.3334 17.3333 15.9304 17.3333 16.6667Z" fill="#CFD9E8"/>
<path d="M18.6667 5.33329H19.3333V5.99996C19.3333 6.36812 19.6318 6.66663 20 6.66663C20.3682 6.66663 20.6667 6.36812 20.6667 5.99996V5.33329H21.3333C21.7015 5.33329 22 5.03479 22 4.66663C22 4.29846 21.7015 3.99996 21.3333 3.99996H20.6667V3.33329C20.6667 2.96513 20.3682 2.66663 20 2.66663C19.6318 2.66663 19.3333 2.96513 19.3333 3.33329V3.99996H18.6667C18.2985 3.99996 18 4.29846 18 4.66663C18 5.03479 18.2985 5.33329 18.6667 5.33329Z" fill="#CFD9E8"/>
</svg>
