<svg width="40" height="40" viewBox="0 0 40 40" fill="none" xmlns="http://www.w3.org/2000/svg">
<path d="M38.125 12.5H30V1.875C30 1.52938 29.72 1.25 29.375 1.25H10.625C10.28 1.25 10 1.52938 10 1.875V12.5H1.875C1.53 12.5 1.25 12.7794 1.25 13.125V38.125C1.25 38.4706 1.53 38.75 1.875 38.75H38.125C38.47 38.75 38.75 38.4706 38.75 38.125V13.125C38.75 12.7794 38.47 12.5 38.125 12.5ZM2.5 13.75H10V37.5H2.5V13.75ZM21.875 31.25V37.5H18.125V31.25H21.875ZM28.75 37.5H23.125V31.25H24.375V30H15.625V31.25H16.875V37.5H11.25V2.5H28.75V37.5ZM37.5 37.5H30V13.75H37.5V37.5Z" fill="#CFD9E8"/>
<path d="M31.875 20H35.625C35.97 20 36.25 19.7206 36.25 19.375V15.625C36.25 15.2794 35.97 15 35.625 15H31.875C31.53 15 31.25 15.2794 31.25 15.625V19.375C31.25 19.7206 31.53 20 31.875 20ZM32.5 16.25H35V18.75H32.5V16.25Z" fill="#CFD9E8"/>
<path d="M31.875 26.25H35.625C35.97 26.25 36.25 25.9706 36.25 25.625V21.875C36.25 21.5294 35.97 21.25 35.625 21.25H31.875C31.53 21.25 31.25 21.5294 31.25 21.875V25.625C31.25 25.9706 31.53 26.25 31.875 26.25ZM32.5 22.5H35V25H32.5V22.5Z" fill="#CFD9E8"/>
<path d="M31.875 32.5H35.625C35.97 32.5 36.25 32.2206 36.25 31.875V28.125C36.25 27.7794 35.97 27.5 35.625 27.5H31.875C31.53 27.5 31.25 27.7794 31.25 28.125V31.875C31.25 32.2206 31.53 32.5 31.875 32.5ZM32.5 28.75H35V31.25H32.5V28.75Z" fill="#CFD9E8"/>
<path d="M8.125 15H4.375C4.03 15 3.75 15.2794 3.75 15.625V19.375C3.75 19.7206 4.03 20 4.375 20H8.125C8.47 20 8.75 19.7206 8.75 19.375V15.625C8.75 15.2794 8.47 15 8.125 15ZM7.5 18.75H5V16.25H7.5V18.75Z" fill="#CFD9E8"/>
<path d="M13.125 17.5H15.625C15.97 17.5 16.25 17.2206 16.25 16.875V14.375C16.25 14.0294 15.97 13.75 15.625 13.75H13.125C12.78 13.75 12.5 14.0294 12.5 14.375V16.875C12.5 17.2206 12.78 17.5 13.125 17.5ZM13.75 15H15V16.25H13.75V15Z" fill="#CFD9E8"/>
<path d="M21.25 13.75H18.75C18.405 13.75 18.125 14.0294 18.125 14.375V16.875C18.125 17.2206 18.405 17.5 18.75 17.5H21.25C21.595 17.5 21.875 17.2206 21.875 16.875V14.375C21.875 14.0294 21.595 13.75 21.25 13.75ZM20.625 16.25H19.375V15H20.625V16.25Z" fill="#CFD9E8"/>
<path d="M23.75 14.375V16.875C23.75 17.2206 24.03 17.5 24.375 17.5H26.875C27.22 17.5 27.5 17.2206 27.5 16.875V14.375C27.5 14.0294 27.22 13.75 26.875 13.75H24.375C24.03 13.75 23.75 14.0294 23.75 14.375ZM25 15H26.25V16.25H25V15Z" fill="#CFD9E8"/>
<path d="M13.125 22.5H15.625C15.97 22.5 16.25 22.2206 16.25 21.875V19.375C16.25 19.0294 15.97 18.75 15.625 18.75H13.125C12.78 18.75 12.5 19.0294 12.5 19.375V21.875C12.5 22.2206 12.78 22.5 13.125 22.5ZM13.75 20H15V21.25H13.75V20Z" fill="#CFD9E8"/>
<path d="M21.25 18.75H18.75C18.405 18.75 18.125 19.0294 18.125 19.375V21.875C18.125 22.2206 18.405 22.5 18.75 22.5H21.25C21.595 22.5 21.875 22.2206 21.875 21.875V19.375C21.875 19.0294 21.595 18.75 21.25 18.75ZM20.625 21.25H19.375V20H20.625V21.25Z" fill="#CFD9E8"/>
<path d="M26.875 18.75H24.375C24.03 18.75 23.75 19.0294 23.75 19.375V21.875C23.75 22.2206 24.03 22.5 24.375 22.5H26.875C27.22 22.5 27.5 22.2206 27.5 21.875V19.375C27.5 19.0294 27.22 18.75 26.875 18.75ZM26.25 21.25H25V20H26.25V21.25Z" fill="#CFD9E8"/>
<path d="M13.125 27.5H15.625C15.97 27.5 16.25 27.2206 16.25 26.875V24.375C16.25 24.0294 15.97 23.75 15.625 23.75H13.125C12.78 23.75 12.5 24.0294 12.5 24.375V26.875C12.5 27.2206 12.78 27.5 13.125 27.5ZM13.75 25H15V26.25H13.75V25Z" fill="#CFD9E8"/>
<path d="M21.25 23.75H18.75C18.405 23.75 18.125 24.0294 18.125 24.375V26.875C18.125 27.2206 18.405 27.5 18.75 27.5H21.25C21.595 27.5 21.875 27.2206 21.875 26.875V24.375C21.875 24.0294 21.595 23.75 21.25 23.75ZM20.625 26.25H19.375V25H20.625V26.25Z" fill="#CFD9E8"/>
<path d="M26.875 23.75H24.375C24.03 23.75 23.75 24.0294 23.75 24.375V26.875C23.75 27.2206 24.03 27.5 24.375 27.5H26.875C27.22 27.5 27.5 27.2206 27.5 26.875V24.375C27.5 24.0294 27.22 23.75 26.875 23.75ZM26.25 26.25H25V25H26.25V26.25Z" fill="#CFD9E8"/>
<path d="M8.125 21.25H4.375C4.03 21.25 3.75 21.5294 3.75 21.875V25.625C3.75 25.9706 4.03 26.25 4.375 26.25H8.125C8.47 26.25 8.75 25.9706 8.75 25.625V21.875C8.75 21.5294 8.47 21.25 8.125 21.25ZM7.5 25H5V22.5H7.5V25Z" fill="#CFD9E8"/>
<path d="M8.125 27.5H4.375C4.03 27.5 3.75 27.7794 3.75 28.125V31.875C3.75 32.2206 4.03 32.5 4.375 32.5H8.125C8.47 32.5 8.75 32.2206 8.75 31.875V28.125C8.75 27.7794 8.47 27.5 8.125 27.5ZM7.5 31.25H5V28.75H7.5V31.25Z" fill="#CFD9E8"/>
<path d="M16.25 10H18.125V11.875C18.125 12.2206 18.405 12.5 18.75 12.5H21.25C21.595 12.5 21.875 12.2206 21.875 11.875V10H23.75C24.095 10 24.375 9.72062 24.375 9.375V6.875C24.375 6.52938 24.095 6.25 23.75 6.25H21.875V4.375C21.875 4.02938 21.595 3.75 21.25 3.75H18.75C18.405 3.75 18.125 4.02938 18.125 4.375V6.25H16.25C15.905 6.25 15.625 6.52938 15.625 6.875V9.375C15.625 9.72062 15.905 10 16.25 10ZM16.875 7.5H18.75C19.095 7.5 19.375 7.22062 19.375 6.875V5H20.625V6.875C20.625 7.22062 20.905 7.5 21.25 7.5H23.125V8.75H21.25C20.905 8.75 20.625 9.02938 20.625 9.375V11.25H19.375V9.375C19.375 9.02938 19.095 8.75 18.75 8.75H16.875V7.5Z" fill="#CFD9E8"/>
<path d="M26.25 35H27.5V36.25H26.25V35Z" fill="#CFD9E8"/>
<path d="M26.25 32.5H27.5V33.75H26.25V32.5Z" fill="#CFD9E8"/>
<path d="M26.25 30H27.5V31.25H26.25V30Z" fill="#CFD9E8"/>
</svg>
