<svg width="50" height="48" viewBox="0 0 50 48" fill="none" xmlns="http://www.w3.org/2000/svg">
<g clip-path="url(#clip0_102_57)">
<path fill-rule="evenodd" clip-rule="evenodd" d="M0.0805233 6.84378C-0.241538 8.85666 0.4831 9.90336 1.5298 10.1449C2.5765 10.2254 3.6232 9.42027 4.02577 7.40738C4.42835 5.31399 2.89856 2.65698 2.89856 2.65698C2.89856 2.65698 0.4831 4.66986 0.0805233 6.84378Z" fill="#CFD9E8"/>
<path fill-rule="evenodd" clip-rule="evenodd" d="M38.0837 47.9066L36.9565 46.6989L39.2915 44.7665L33.6554 38.6474L40.8213 32.9308L46.4573 39.0499L48.8728 37.1176L50 38.3253L38.0837 47.9066Z" fill="#CFD9E8"/>
<path fill-rule="evenodd" clip-rule="evenodd" d="M42.5121 30.5958L41.9485 30.0322L40.2576 31.401L18.1159 7.8905H18.0354L10.7085 6.44122L4.66987 0.0805153L4.58935 0L4.34781 0.805153L9.98388 7.00483L10.1449 14.2512L32.3671 37.7617L30.9179 39.0499L31.4815 39.6135L40.8212 32.0451L42.5121 30.5958Z" fill="#CFD9E8"/>
<path fill-rule="evenodd" clip-rule="evenodd" d="M21.256 12.3994L17.8744 15.0564L18.438 15.7005L21.7391 13.0435L22.9469 14.2512L21.1755 15.781L21.6586 16.4251L23.5105 14.8953L24.7987 16.1836L22.8663 17.7134L23.43 18.277L25.2818 16.7472L26.409 17.9549L23.1884 20.6119L23.6715 21.2561L26.9726 18.5185L28.1804 19.8068L26.3285 21.2561L26.8921 21.8197L28.6634 20.2899L29.9517 21.6586L28.0998 23.1079L28.6634 23.752L30.4348 22.2222L31.9646 23.752L28.6634 26.409L29.1465 27.0532L32.4477 24.3156L33.4138 25.2818L31.6425 26.7311L32.2061 27.2947L33.8969 25.9259L35.1852 27.1337L33.4138 28.5829L33.9775 29.1465L35.7488 27.7778L39.533 31.9646L33.0113 37.2786L11.0306 13.9292L10.8696 7.3269L17.5523 8.53463L21.256 12.3994Z" fill="#F8F8F8"/>
</g>
<defs>
<clipPath id="clip0_102_57">
<rect width="50" height="47.9066" fill="white"/>
</clipPath>
</defs>
</svg>
