<svg width="26" height="27" viewBox="0 0 26 27" fill="none" xmlns="http://www.w3.org/2000/svg">
    <g filter="url(#filter0_d_116_193)">
        <path
            d="M16 0V6H22L16 0ZM14.5 6V0H6.25C5.00734 0 4 1.00734 4 2.25V21.75C4 22.9922 5.00734 24 6.25 24H19.75C20.9927 24 22 22.9927 22 21.75V7.5H16.0422C15.1703 7.5 14.5 6.82969 14.5 6ZM17.5 14.1422V15.8564C17.5 16.2141 17.2141 16.5 16.8578 16.5L14.5 16.4578V18.8152C14.5 19.2141 14.2141 19.5 13.8578 19.5H12.1422C11.7859 19.5 11.5 19.2141 11.5 18.8578V16.4578L9.14219 16.5C8.78594 16.5 8.5 16.2141 8.5 15.8578V14.1422C8.5 13.7859 8.78594 13.5 9.14219 13.5H11.5V11.1422C11.5 10.7859 11.7859 10.5 12.1422 10.5H13.8564C14.2141 10.5 14.5 10.7859 14.5 11.1422V13.5H16.8573C17.2141 13.5 17.5 13.7859 17.5 14.1422Z"
            fill="#0D428E" />
    </g>
    <defs>
        <filter id="filter0_d_116_193" x="0" y="0" width="26" height="32"
            filterUnits="userSpaceOnUse" color-interpolation-filters="sRGB">
            <feFlood flood-opacity="0" result="BackgroundImageFix" />
            <feColorMatrix in="SourceAlpha" type="matrix"
                values="0 0 0 0 0 0 0 0 0 0 0 0 0 0 0 0 0 0 127 0" result="hardAlpha" />
            <feOffset dy="4" />
            <feGaussianBlur stdDeviation="2" />
            <feComposite in2="hardAlpha" operator="out" />
            <feColorMatrix type="matrix" values="0 0 0 0 0 0 0 0 0 0 0 0 0 0 0 0 0 0 0.25 0" />
            <feBlend mode="normal" in2="BackgroundImageFix" result="effect1_dropShadow_116_193" />
            <feBlend mode="normal" in="SourceGraphic" in2="effect1_dropShadow_116_193"
                result="shape" />
        </filter>
    </defs>
</svg>
