<svg width="180" height="172" viewBox="0 0 180 172" fill="none" xmlns="http://www.w3.org/2000/svg">
<g clip-path="url(#clip0_102_4)">
<path d="M14.7638 168.189C13.5236 169.37 12.1654 170.256 10.689 170.846C9.2126 171.437 7.73622 171.732 6.20079 171.732C4.31102 171.732 2.83465 171.201 1.7126 170.079C0.590551 169.075 0 167.598 0 165.827C0 163.583 1.12205 161.634 3.30709 160.039C5.55118 158.445 9.33071 156.909 14.6457 155.433V151.24C14.6457 149.705 14.2913 148.583 13.6417 147.874C12.9921 147.165 11.9291 146.811 10.5118 146.811C9.33071 146.811 8.44488 146.988 7.85433 147.283C7.26378 147.579 6.90945 147.992 6.90945 148.583C6.90945 148.878 7.14567 149.35 7.67717 150.059C8.20866 150.768 8.44488 151.476 8.44488 152.126C8.44488 153.071 8.09055 153.898 7.38189 154.488C6.67323 155.079 5.7874 155.433 4.66535 155.433C3.54331 155.433 2.65748 155.079 2.00787 154.429C1.35827 153.78 1.00394 152.835 1.00394 151.713C1.00394 149.764 2.00787 148.169 3.95669 146.87C5.90551 145.63 8.44488 144.98 11.6339 144.98C15.4724 144.98 18.189 145.689 19.8425 147.047C21.4961 148.406 22.3228 150.709 22.3228 153.839V165.945C22.3228 166.949 22.3819 167.598 22.5 167.894C22.6181 168.189 22.8543 168.307 23.2677 168.307C23.4449 168.307 23.622 168.248 23.7992 168.13C23.9764 168.012 24.2717 167.835 24.5669 167.598L25.2756 168.78C24.3898 169.783 23.3858 170.551 22.3819 171.024C21.378 171.496 20.315 171.791 19.1339 171.791C17.7756 171.791 16.7126 171.496 15.9449 170.906C15.1772 170.315 14.8819 169.37 14.7638 168.189ZM14.6457 165.827V157.146C12.4606 157.677 10.8071 158.504 9.68504 159.685C8.56299 160.866 8.0315 162.343 8.0315 164.114C8.0315 165.532 8.26772 166.595 8.6811 167.244C9.09449 167.894 9.80315 168.248 10.748 168.248C11.3386 168.248 11.9882 168.012 12.6969 167.598C13.4055 167.185 14.0551 166.594 14.6457 165.827Z" fill="#231F20"/>
<path d="M42.9921 168.189C41.752 169.37 40.3937 170.256 38.9173 170.846C37.4409 171.437 35.9646 171.732 34.4291 171.732C32.5394 171.732 31.063 171.201 29.9409 170.079C28.8189 169.016 28.2283 167.539 28.2283 165.768C28.2283 163.524 29.3504 161.575 31.5354 159.98C33.7795 158.386 37.5591 156.85 42.874 155.374V151.181C42.874 149.646 42.5197 148.524 41.8701 147.815C41.2205 147.106 40.1575 146.752 38.7402 146.752C37.5591 146.752 36.6732 146.929 36.0827 147.224C35.4921 147.52 35.1378 147.933 35.1378 148.524C35.1378 148.819 35.374 149.291 35.9055 150C36.437 150.709 36.6732 151.417 36.6732 152.067C36.6732 153.012 36.3189 153.839 35.6102 154.429C34.9016 155.02 34.0158 155.374 32.8937 155.374C31.7717 155.374 30.8858 155.02 30.2362 154.37C29.5866 153.72 29.2323 152.776 29.2323 151.654C29.2323 149.705 30.2362 148.11 32.185 146.811C34.1339 145.571 36.6732 144.921 39.8622 144.921C43.7008 144.921 46.4173 145.63 48.0709 146.988C49.7244 148.346 50.5512 150.65 50.5512 153.78V165.945C50.5512 166.949 50.6102 167.598 50.7284 167.894C50.8465 168.189 51.0827 168.307 51.4961 168.307C51.6732 168.307 51.8504 168.248 52.0276 168.13C52.2047 168.012 52.5 167.835 52.7953 167.598L53.5039 168.78C52.6181 169.783 51.6142 170.551 50.6102 171.024C49.6063 171.496 48.5433 171.791 47.3622 171.791C46.0039 171.791 44.941 171.496 44.1732 170.906C43.4055 170.315 43.0512 169.37 42.9921 168.189ZM42.874 165.827V157.146C40.689 157.677 39.0354 158.504 37.9134 159.685C36.7913 160.866 36.2598 162.343 36.2598 164.114C36.2598 165.532 36.4961 166.595 36.9095 167.244C37.3228 167.894 38.0315 168.248 38.9764 168.248C39.5669 168.248 40.2165 168.012 40.9252 167.598C41.6339 167.185 42.2835 166.595 42.874 165.827Z" fill="#231F20"/>
<path d="M66.9685 166.476C66.9685 167.717 67.1457 168.543 67.5591 168.957C67.9134 169.429 68.622 169.665 69.5669 169.724V171.024H56.2795V169.724C57.3425 169.665 58.0512 169.429 58.4646 168.957C58.8779 168.484 59.0551 167.657 59.0551 166.476V150.413C59.0551 148.996 58.8779 148.051 58.5236 147.697C58.1693 147.283 57.4606 147.106 56.3976 147.047V145.689H66.9094V166.476H66.9685ZM58.8779 137.244C58.8779 136.063 59.2913 135.059 60.0591 134.291C60.8268 133.465 61.8307 133.11 63.0118 133.11C64.1929 133.11 65.1378 133.524 65.9646 134.35C66.7913 135.177 67.2047 136.181 67.2047 137.303C67.2047 138.425 66.7913 139.429 66.0236 140.197C65.1968 140.965 64.252 141.378 63.0709 141.378C61.8898 141.378 60.9449 140.965 60.1181 140.197C59.2323 139.37 58.8779 138.425 58.8779 137.244Z" fill="#231F20"/>
<path d="M72.0472 171.024V169.843L84.7441 147.461H81.4961C79.4291 147.461 77.8937 147.874 76.8898 148.76C75.8268 149.646 75.0591 151.122 74.5866 153.307H73.1693L73.5827 145.571H93.5433V147.165L81.3189 168.957H83.5039C85.9842 168.957 87.9331 168.425 89.2323 167.421C90.5315 166.417 91.5945 164.646 92.3032 162.165H93.6024L92.9528 170.965H72.0472V171.024Z" fill="#231F20"/>
<path d="M96.5551 158.327C96.5551 154.37 97.6772 151.122 99.9803 148.642C102.283 146.161 105.177 144.921 108.839 144.921C112.5 144.921 115.394 146.161 117.697 148.642C120 151.122 121.122 154.311 121.122 158.327C121.122 162.283 120 165.532 117.697 168.012C115.453 170.492 112.5 171.732 108.898 171.732C105.295 171.732 102.343 170.492 100.039 167.953C97.7362 165.472 96.5551 162.283 96.5551 158.327ZM104.587 158.268C104.587 162.874 104.882 165.945 105.531 167.598C106.181 169.193 107.244 170.02 108.839 170.02C110.433 170.02 111.496 169.252 112.146 167.657C112.736 166.063 113.031 162.992 113.031 158.327C113.031 153.661 112.736 150.532 112.087 148.937C111.496 147.343 110.374 146.575 108.839 146.575C107.244 146.575 106.181 147.402 105.531 148.996C104.882 150.591 104.587 153.661 104.587 158.268Z" fill="#231F20"/>
<path d="M124.134 158.327C124.134 154.37 125.256 151.122 127.559 148.642C129.862 146.161 132.756 144.921 136.417 144.921C140.079 144.921 142.972 146.161 145.276 148.642C147.579 151.122 148.701 154.311 148.701 158.327C148.701 162.283 147.579 165.532 145.276 168.012C143.031 170.492 140.079 171.732 136.476 171.732C132.874 171.732 129.921 170.492 127.618 167.953C125.315 165.472 124.134 162.283 124.134 158.327ZM132.165 158.268C132.165 162.874 132.461 165.945 133.11 167.598C133.76 169.193 134.823 170.02 136.417 170.02C138.012 170.02 139.075 169.252 139.724 167.657C140.315 166.063 140.61 162.992 140.61 158.327C140.61 153.661 140.315 150.532 139.665 148.937C139.075 147.343 137.953 146.575 136.417 146.575C134.823 146.575 133.76 147.402 133.11 148.996C132.461 150.591 132.165 153.661 132.165 158.268Z" fill="#231F20"/>
<path d="M151.654 171.024V169.724C152.717 169.665 153.425 169.429 153.839 168.957C154.252 168.484 154.429 167.657 154.429 166.417V150.236C154.429 149.055 154.252 148.228 153.839 147.697C153.425 147.224 152.717 146.929 151.713 146.87V145.571H162.283V149.114C163.287 147.756 164.469 146.693 165.768 145.984C167.067 145.276 168.543 144.921 170.079 144.921C172.5 144.921 174.272 145.63 175.512 147.106C176.693 148.524 177.283 150.768 177.283 153.72V166.476C177.283 167.657 177.461 168.484 177.874 168.957C178.287 169.429 178.996 169.665 180 169.724V171.024H166.772V169.724C167.776 169.665 168.425 169.429 168.839 168.957C169.252 168.484 169.429 167.657 169.429 166.476V153.248C169.429 151.535 169.252 150.354 168.839 149.764C168.425 149.114 167.776 148.819 166.772 148.819C165.886 148.819 165.118 149.055 164.35 149.587C163.583 150.059 162.874 150.827 162.283 151.772V166.476C162.283 167.657 162.461 168.484 162.874 168.957C163.287 169.429 163.937 169.665 164.941 169.724V171.024H151.654Z" fill="#231F20"/>
<path d="M133.287 31.181C131.634 76.0629 84.8032 94.4291 84.8032 94.4291C111.732 68.0905 112.5 43.4645 112.5 40.0393C115.157 41.9291 118.465 42.8149 121.949 42.3425C127.913 41.5747 132.402 36.9094 133.287 31.181Z" fill="url(#paint0_linear_102_4)"/>
<path opacity="0.6" d="M81.8504 123.012C108.073 123.012 129.331 120.87 129.331 118.228C129.331 115.586 108.073 113.445 81.8504 113.445C55.6277 113.445 34.3701 115.586 34.3701 118.228C34.3701 120.87 55.6277 123.012 81.8504 123.012Z" fill="url(#paint1_radial_102_4)"/>
<path d="M120.118 35.6102C123.673 35.6102 126.555 32.7283 126.555 29.1732C126.555 25.6182 123.673 22.7362 120.118 22.7362C116.563 22.7362 113.681 25.6182 113.681 29.1732C113.681 32.7283 116.563 35.6102 120.118 35.6102Z" fill="url(#paint2_radial_102_4)"/>
<path opacity="0.5" d="M121.299 33.5433C117.756 33.0709 115.276 29.8228 115.807 26.3386C115.925 25.3937 116.28 24.5079 116.752 23.7992C115.157 24.8031 114.035 26.3976 113.799 28.4055C113.327 31.9488 115.807 35.1378 119.291 35.6102C121.89 35.9646 124.311 34.7244 125.61 32.6575C124.37 33.3661 122.835 33.7205 121.299 33.5433Z" fill="url(#paint3_linear_102_4)"/>
<path d="M120.118 37.5C124.717 37.5 128.445 33.772 128.445 29.1732C128.445 24.5745 124.717 20.8464 120.118 20.8464C115.519 20.8464 111.791 24.5745 111.791 29.1732C111.791 33.772 115.519 37.5 120.118 37.5Z" fill="url(#paint4_radial_102_4)"/>
<path opacity="0.8" d="M127.323 30.7677C127.323 30.9449 127.323 31.1221 127.323 31.2402C127.5 30.5906 127.618 29.8819 127.618 29.1732C127.618 25.0984 124.311 21.7914 120.236 21.7323C124.252 22.7362 127.323 26.3977 127.323 30.7677Z" fill="url(#paint5_linear_102_4)"/>
<path d="M141.673 61.7125C137.362 89.7637 113.091 111.201 83.7992 111.201C58.937 111.201 37.7362 95.7283 29.2323 73.9369C29.1732 73.8779 29.1732 73.7598 29.1142 73.6417C29.0551 73.5235 29.0551 73.4054 29.0551 73.2873C29.0551 72.5196 29.5276 71.87 30.2362 71.5157C31.4764 70.9251 32.5984 71.4566 32.8346 71.87C32.8937 71.9291 33.0118 72.1653 33.0118 72.2243C41.4567 89.2322 61.5354 101.457 78.0118 101.398C98.8583 101.339 116.811 89.055 124.961 71.2795C131.575 70.1574 137.421 66.6141 141.673 61.7125Z" fill="url(#paint6_linear_102_4)"/>
<path d="M83.8583 89.2323C83.8583 89.2323 55.8662 79.5472 44.5276 57.874C33.189 36.2008 41.5158 22.9724 48.9567 20.3149C56.3976 17.6574 63.4252 18.7795 72.815 27.5787C72.815 27.5787 74.3504 29.8819 77.4213 29.4094C80.4921 28.8779 81.7914 26.5748 81.7914 26.5748C81.7914 26.5748 88.4055 16.4763 97.0276 15.9448C105.709 15.4134 109.252 21.496 109.252 21.496C109.252 21.496 116.457 11.4567 127.618 18.3071C127.618 18.3071 121.476 -0.354367 100.925 0.118074C85.1575 0.29524 75.3543 15.2952 75.3543 15.2952C75.3543 15.2952 61.8307 5.19682 47.3622 10.5708C32.8937 15.9448 31.1811 29.1732 30.8858 33.8386C30.5906 38.5039 31.0039 52.7362 41.8701 66.3779C52.2047 79.4291 67.0866 87.5197 80.6102 93.0118L83.8583 89.2323Z" fill="url(#paint7_linear_102_4)"/>
<path opacity="0.5" d="M127.559 18.1889C116.457 11.3976 109.193 21.3779 109.193 21.3779C109.193 21.3779 105.591 15.2952 96.9685 15.8267C88.2874 16.3582 81.7323 26.4566 81.7323 26.4566C81.7323 26.4566 81.0236 27.6968 79.4882 28.5826C83.6811 17.4212 94.3701 9.50781 106.89 9.50781C114.98 9.50781 122.244 12.8149 127.559 18.1299C127.559 18.1889 127.559 18.1889 127.559 18.1889Z" fill="url(#paint8_linear_102_4)"/>
<path opacity="0.5" d="M141.673 61.7125C141.673 61.7716 141.673 61.8306 141.614 61.8897C130.925 85.2755 107.303 101.516 79.9016 101.516C79.6063 101.516 79.3701 101.516 79.0748 101.516C99.4488 101.043 116.929 88.8779 124.961 71.3976C131.575 70.1574 137.421 66.6141 141.673 61.7125Z" fill="url(#paint9_linear_102_4)"/>
<path opacity="0.5" d="M121.476 42.4015C120.059 63.5433 107.126 81.5551 88.878 90.2362C111.791 65.5512 112.5 43.2874 112.441 40.0984C115.039 41.87 118.169 42.7559 121.476 42.4015Z" fill="url(#paint10_linear_102_4)"/>
</g>
<defs>
<linearGradient id="paint0_linear_102_4" x1="83.0798" y1="87.7967" x2="124.589" y2="45.75" gradientUnits="userSpaceOnUse">
<stop offset="0.00837989" stop-color="#203467"/>
<stop offset="0.4693" stop-color="#0C4E93"/>
<stop offset="0.9078" stop-color="#3AB2BF"/>
<stop offset="1" stop-color="#35BCC4"/>
</linearGradient>
<radialGradient id="paint1_radial_102_4" cx="0" cy="0" r="1" gradientUnits="userSpaceOnUse" gradientTransform="translate(81.8336 118.709) scale(47.4939 4.75633)">
<stop stop-color="#4F5252"/>
<stop offset="0.316" stop-color="#373A3B" stop-opacity="0.684"/>
<stop offset="0.7467" stop-color="#1C2021" stop-opacity="0.2533"/>
<stop offset="1" stop-color="#121617" stop-opacity="0"/>
</radialGradient>
<radialGradient id="paint2_radial_102_4" cx="0" cy="0" r="1" gradientUnits="userSpaceOnUse" gradientTransform="translate(122.479 25.6621) scale(11.0639 11.0543)">
<stop offset="0.3928" stop-color="white"/>
<stop offset="0.5002" stop-color="#F7F8F7"/>
<stop offset="0.6637" stop-color="#E2E3E3"/>
<stop offset="0.7804" stop-color="#CFD1D0"/>
<stop offset="0.8363" stop-color="#C4C6C5"/>
<stop offset="0.934" stop-color="#A7A9A9"/>
<stop offset="1" stop-color="#909293"/>
</radialGradient>
<linearGradient id="paint3_linear_102_4" x1="113.696" y1="29.6797" x2="125.578" y2="29.6797" gradientUnits="userSpaceOnUse">
<stop stop-color="white"/>
<stop offset="1" stop-color="#121617"/>
</linearGradient>
<radialGradient id="paint4_radial_102_4" cx="0" cy="0" r="1" gradientUnits="userSpaceOnUse" gradientTransform="translate(124.339 22.8194) scale(13.8682 13.8562)">
<stop offset="0.0775289" stop-color="#E81F26"/>
<stop offset="0.4358" stop-color="#E81F26"/>
<stop offset="0.6352" stop-color="#E61F26"/>
<stop offset="0.7269" stop-color="#DE1F28"/>
<stop offset="0.7964" stop-color="#D2202B"/>
<stop offset="0.8546" stop-color="#C0202E"/>
<stop offset="0.8616" stop-color="#BD202F"/>
</radialGradient>
<linearGradient id="paint5_linear_102_4" x1="120.278" y1="30.8838" x2="126.671" y2="22.7638" gradientUnits="userSpaceOnUse">
<stop stop-color="#FCFDFF" stop-opacity="0"/>
<stop offset="0.9104" stop-color="#FCFDFF" stop-opacity="0.9104"/>
<stop offset="1" stop-color="#FCFDFF"/>
</linearGradient>
<linearGradient id="paint6_linear_102_4" x1="29.035" y1="86.4738" x2="141.651" y2="86.4738" gradientUnits="userSpaceOnUse">
<stop offset="0.00837989" stop-color="#203467"/>
<stop offset="0.3687" stop-color="#0C4E93"/>
<stop offset="1" stop-color="#35BCC4"/>
</linearGradient>
<linearGradient id="paint7_linear_102_4" x1="40.358" y1="73.0104" x2="97.7104" y2="17.5341" gradientUnits="userSpaceOnUse">
<stop offset="0.00837989" stop-color="#203467"/>
<stop offset="0.3687" stop-color="#0C4E93"/>
<stop offset="1" stop-color="#35BCC4"/>
</linearGradient>
<linearGradient id="paint8_linear_102_4" x1="118.142" y1="7.56903" x2="85.1699" y2="38.6649" gradientUnits="userSpaceOnUse">
<stop stop-color="#121617"/>
<stop offset="1" stop-color="#121617" stop-opacity="0"/>
</linearGradient>
<linearGradient id="paint9_linear_102_4" x1="79.1007" y1="81.6159" x2="141.654" y2="81.6159" gradientUnits="userSpaceOnUse">
<stop stop-color="white" stop-opacity="0"/>
<stop offset="1" stop-color="white"/>
</linearGradient>
<linearGradient id="paint10_linear_102_4" x1="88.8969" y1="65.1363" x2="121.497" y2="65.1363" gradientUnits="userSpaceOnUse">
<stop stop-color="#FCFDFF" stop-opacity="0"/>
<stop offset="0.9104" stop-color="#FCFDFF" stop-opacity="0.9104"/>
<stop offset="1" stop-color="#FCFDFF"/>
</linearGradient>
<clipPath id="clip0_102_4">
<rect width="180" height="171.732" fill="white"/>
</clipPath>
</defs>
</svg>
