<svg width="40" height="40" viewBox="0 0 40 40" fill="none" xmlns="http://www.w3.org/2000/svg">
<g clip-path="url(#clip0_102_144)">
<path d="M9.82001 9.84326C9.38876 9.84326 9.03876 10.1933 9.03876 10.6245C9.03876 11.0558 9.38876 11.4058 9.82001 11.4058C10.2513 11.4058 10.6013 11.0558 10.6013 10.6245C10.6013 10.1933 10.2513 9.84326 9.82001 9.84326Z" fill="#CFD9E8"/>
<path d="M16.8509 24.4519H14.5073V22.1083C14.5073 21.6769 14.1574 21.327 13.726 21.327C13.2946 21.327 12.9449 21.6769 12.9449 22.1083V24.4519H10.6013C10.1699 24.4519 9.82001 24.8017 9.82001 25.233C9.82001 25.6644 10.1699 26.0143 10.6013 26.0143H12.9449V28.3579C12.9449 28.7893 13.2947 29.1391 13.726 29.1391C14.1574 29.1391 14.5073 28.7893 14.5073 28.3579V26.0143H16.8509C17.2823 26.0143 17.6321 25.6644 17.6321 25.233C17.6321 24.8016 17.2824 24.4519 16.8509 24.4519Z" fill="#CFD9E8"/>
<path d="M37.9358 25.155C36.2088 22.1639 32.3904 21.1402 29.3987 22.8676L26.2255 24.6996V17.9155C26.2255 17.0769 25.9481 16.2446 25.4443 15.572L21.5383 10.3641V8.14641C22.4475 7.82391 23.1007 6.95563 23.1007 5.93711V2.34359C23.1005 1.05133 22.0492 0 20.7569 0H6.69515C5.40289 0 4.35148 1.05133 4.35148 2.34359V5.93719C4.35148 6.95555 5.00468 7.82398 5.9139 8.14648V10.3641L2.00758 15.5723C1.50398 16.2447 1.22664 17.0769 1.22664 17.9155V33.0452C1.22664 35.1991 2.9789 36.9513 5.13265 36.9513H17.6875C19.4391 39.8874 23.2162 40.8701 26.1769 39.1605L35.6484 33.692C38.6137 31.9797 39.6714 28.1624 37.9358 25.155ZM5.9139 2.34359C5.9139 1.91281 6.26437 1.56234 6.69507 1.56234H20.7569C21.1876 1.56234 21.5381 1.91281 21.5381 2.34359V5.93719C21.5381 6.36797 21.1876 6.71836 20.7569 6.71836H6.69515C6.26437 6.71836 5.91398 6.36789 5.91398 5.93719V2.34359H5.9139ZM3.25789 16.5093L7.32007 11.0932C7.42148 10.958 7.47632 10.7935 7.47632 10.6245V8.28086H19.9757V9.84328H12.9448C12.5134 9.84328 12.1636 10.1931 12.1636 10.6245C12.1636 11.0559 12.5134 11.4058 12.9448 11.4058H20.3663L24.1939 16.5091C24.4441 16.843 24.5994 17.2427 24.6464 17.6555H2.8057C2.85258 17.2426 3.00797 16.843 3.25789 16.5093ZM5.13273 35.3888C3.84047 35.3888 2.78914 34.3375 2.78914 33.0452V32.2562H16.9825C16.7348 33.2691 16.7364 34.351 17.0201 35.3889H5.13273V35.3888ZM17.5952 30.7016H2.78906V19.2177H24.663V25.6016L19.9271 28.3361C18.9397 28.9065 18.1416 29.7184 17.5952 30.7016ZM25.3958 37.8074C23.1538 39.102 20.289 38.3364 18.9935 36.0929C17.6919 33.8277 18.4807 30.9759 20.7085 29.6891L24.9489 27.2408L29.6362 35.3591L25.3958 37.8074ZM34.8672 32.339L30.9893 34.578L26.3019 26.4595L30.1799 24.2207C32.4233 22.9255 35.2872 23.6925 36.5826 25.9361C37.8838 28.1909 37.0926 31.0539 34.8672 32.339Z" fill="#CFD9E8"/>
</g>
<defs>
<clipPath id="clip0_102_144">
<rect width="40" height="40" fill="white"/>
</clipPath>
</defs>
</svg>
