<svg width="40" height="40" viewBox="0 0 40 40" fill="none" xmlns="http://www.w3.org/2000/svg">
<g clip-path="url(#clip0_102_53)">
<path d="M27.9869 7.90169C27.8886 7.93447 25.5738 8.73447 25.5738 11.1476C25.5738 11.5097 25.8674 11.8033 26.2295 11.8033C26.5917 11.8033 26.8853 11.5097 26.8853 11.1476C26.9525 10.2463 27.5512 9.47213 28.4066 9.18037C28.7506 9.06448 28.9356 8.69163 28.8197 8.34759C28.7038 8.00354 28.331 7.81858 27.9869 7.93447V7.90169Z" fill="#CFD9E8"/>
<path d="M39.3443 4.26231C39.3456 3.03427 38.5845 1.93437 37.4349 1.50273C36.2852 1.0711 34.9883 1.39838 34.1811 2.32388C33.3739 3.24938 33.2259 4.57868 33.8098 5.65904L32.6557 6.64264C30.5632 4.87595 27.5302 4.78091 25.3311 6.41313L24.4393 5.61969C25.3327 4.19063 24.9971 2.31708 23.6633 1.28692C22.3295 0.256755 20.432 0.405553 19.2751 1.63103C18.1181 2.8565 18.0787 4.75946 19.1839 6.0318C20.289 7.30415 22.1788 7.53142 23.5541 6.55739L24.3672 7.28526C20.5967 11.718 24.8721 18.4328 30.5246 16.7738L31.3574 17.9148C30.4142 19.6327 30.7662 21.7726 32.2099 23.0979C33.6536 24.4232 35.8158 24.5913 37.4469 23.5049C39.078 22.4186 39.7564 20.3588 39.09 18.5157C38.4236 16.6727 36.5848 15.5231 34.6361 15.7312L33.7115 14.459C35.1424 12.3681 35.0791 9.59714 33.5541 7.57379L34.6623 6.62297C35.5561 7.27054 36.7365 7.36517 37.7221 6.86826C38.7076 6.37135 39.3334 5.36598 39.3443 4.26231ZM36.3934 2.62297C37.0679 2.61043 37.6812 3.01231 37.9389 3.63569C38.1966 4.25908 38.0462 4.97671 37.5598 5.4441C37.0734 5.91148 36.3503 6.03321 35.7377 5.75084L36.5115 5.0951C36.7867 4.8597 36.819 4.44575 36.5836 4.17051C36.3482 3.89527 35.9342 3.86298 35.659 4.09838L34.8656 4.75412C34.7047 4.26186 34.788 3.72244 35.0897 3.30157C35.3915 2.88069 35.8756 2.62869 36.3934 2.62297ZM19.6721 3.93445C19.669 3.13149 20.1542 2.40725 20.898 2.10466C21.6418 1.80207 22.4948 1.98189 23.0531 2.55896C23.6114 3.13603 23.763 3.99451 23.4361 4.72789L22.7279 4.07215C22.4545 3.85195 22.0562 3.88611 21.8243 4.14964C21.5924 4.41317 21.6091 4.81258 21.8623 5.05576L22.518 5.65248C21.9149 5.95379 21.1994 5.92521 20.6222 5.57676C20.045 5.22831 19.6865 4.60852 19.6721 3.93445ZM24.2623 11.1476C24.2591 9.22965 25.4487 7.51194 27.2452 6.84038C29.0417 6.16883 31.0663 6.685 32.322 8.1347C33.5777 9.5844 33.7997 11.662 32.8787 13.3443C32.2174 12.537 31.0408 12.3866 30.1977 13.0015C29.3546 13.6164 29.1383 14.7827 29.7049 15.659C28.3618 15.9129 26.9755 15.5549 25.9231 14.6826C24.8708 13.8103 24.2619 12.5144 24.2623 11.1476ZM38.0328 20C38.0328 21.6297 36.7117 22.9508 35.082 22.9508C33.4523 22.9508 32.1311 21.6297 32.1311 20C32.1311 18.3703 33.4523 17.0492 35.082 17.0492C36.7102 17.0528 38.0292 18.3718 38.0328 20ZM32.1967 16.8721L30.8197 14.9574C30.6803 14.7665 30.6533 14.5157 30.749 14.2995C30.8446 14.0833 31.0484 13.9346 31.2834 13.9093C31.5185 13.8841 31.7491 13.9861 31.8885 14.1771L33.3115 16.1443C32.9031 16.3252 32.5266 16.571 32.1967 16.8721Z" fill="#CFD9E8"/>
<path d="M26.8851 24.2623H25.3441C25.8029 23.3005 25.5371 22.1493 24.7032 21.486C23.8693 20.8226 22.6879 20.8226 21.8539 21.486C21.02 22.1493 20.7542 23.3005 21.213 24.2623H19.672C18.5855 24.1826 17.6402 24.9988 17.5605 26.0852C17.4809 27.1717 18.297 28.117 19.3835 28.1967C17.5566 30.2022 14.7589 31.0131 12.1427 30.2953C9.52645 29.5775 7.53425 27.4524 6.98656 24.7954C6.43887 22.1384 7.42833 19.3988 9.54741 17.7049C9.6435 17.7105 9.73985 17.7105 9.83594 17.7049C10.5453 17.7049 11.2356 17.4748 11.8032 17.0492L12.6097 17.8492C12.4901 18.2984 12.6174 18.7774 12.9441 19.1082L13.8687 20.0393C14.1147 20.2856 14.4485 20.424 14.7966 20.424C15.1447 20.424 15.4785 20.2856 15.7245 20.0393L16.19 19.5737L17.5474 20.9836C17.7934 21.2299 18.1272 21.3682 18.4753 21.3682C18.8234 21.3682 19.1572 21.2299 19.4032 20.9836L21.2523 19.1278C21.4986 18.8819 21.637 18.5481 21.637 18.2C21.637 17.8519 21.4986 17.5181 21.2523 17.2721L19.8622 15.8819L20.3277 15.4229C20.574 15.1769 20.7124 14.8431 20.7124 14.4951C20.7124 14.147 20.574 13.8132 20.3277 13.5672L19.4032 12.636C19.0711 12.307 18.5889 12.1795 18.1376 12.3016L8.7343 2.88522C8.48831 2.63896 8.15451 2.50058 7.80643 2.50058C7.45835 2.50058 7.12455 2.63896 6.87856 2.88522L5.02938 1.0426C4.78339 0.796332 4.44959 0.657959 4.10151 0.657959C3.75343 0.657959 3.41963 0.796332 3.17364 1.0426L1.31135 2.89178C1.06508 3.13777 0.926709 3.47157 0.926709 3.81965C0.926709 4.16773 1.06508 4.50152 1.31135 4.74752L3.17364 6.60325C2.92738 6.84925 2.789 7.18305 2.789 7.53112C2.789 7.8792 2.92738 8.213 3.17364 8.45899L7.21299 12.4918C6.84427 12.9705 6.6171 13.543 6.55725 14.1442C3.65975 16.7372 2.2252 20.5909 2.72183 24.4474C3.21847 28.3039 5.58258 31.6683 9.04249 33.4426H5.90151C3.72859 33.4426 1.96708 35.2041 1.96708 37.377V38.6885H1.31135C0.949193 38.6885 0.655609 38.9821 0.655609 39.3442C0.655609 39.7064 0.949193 40 1.31135 40H27.5409C27.903 40 28.1966 39.7064 28.1966 39.3442C28.1966 38.9821 27.903 38.6885 27.5409 38.6885H26.8851V37.377C26.8851 35.2041 25.1236 33.4426 22.9507 33.4426H19.8097C22.0543 32.2946 23.8703 30.4555 24.99 28.1967H26.8851C27.9716 28.1967 28.8523 27.316 28.8523 26.2295C28.8523 25.143 27.9716 24.2623 26.8851 24.2623ZM22.295 23.2787C22.295 22.7354 22.7353 22.2951 23.2786 22.2951C23.8218 22.2951 24.2622 22.7354 24.2622 23.2787C24.2622 23.8219 23.8218 24.2623 23.2786 24.2623C22.7353 24.2623 22.295 23.8219 22.295 23.2787ZM9.83594 12.459C10.9224 12.459 11.8032 13.3397 11.8032 14.4262C11.8032 15.5127 10.9224 16.3934 9.83594 16.3934C8.74948 16.3934 7.86872 15.5127 7.86872 14.4262C7.86872 13.3397 8.74948 12.459 9.83594 12.459ZM20.3277 18.1967L18.472 20.0524L17.0818 18.6623L18.9376 16.8065L20.3277 18.1967ZM19.4032 14.4852L14.7605 19.1213L13.8359 18.1967L18.472 13.5606L19.4032 14.4852ZM2.24249 3.82293L4.09823 1.96719L5.95397 3.82293L4.09823 5.67866L2.24249 3.82293ZM7.80971 3.82293L17.0818 13.1147L13.3704 16.8262L12.6491 16.1049C13.3807 14.8215 13.1637 13.2073 12.1191 12.1627C11.0745 11.1181 9.46031 10.9011 8.17692 11.6328L4.09823 7.5344C10.1769 1.46227 6.55725 5.05571 7.80971 3.82293ZM22.9507 34.7541C24.3993 34.7541 25.5736 35.9284 25.5736 37.377V38.6885H3.27856V37.377C3.27856 35.9284 4.45289 34.7541 5.90151 34.7541H22.9507ZM14.4261 33.4426C10.2382 33.435 6.45592 30.9377 4.80398 27.0893C3.15205 23.241 3.9469 18.7789 6.8261 15.7377C7.09906 16.3574 7.55719 16.8774 8.13758 17.2262C5.87196 19.5021 5.07756 22.858 6.08248 25.908C7.08741 28.9581 9.72111 31.1845 12.8958 31.6679C16.0706 32.1512 19.2475 30.8095 21.1146 28.1967H23.5015C21.6293 31.4396 18.1706 33.4388 14.4261 33.4426ZM26.8851 26.8852H19.672C19.3098 26.8852 19.0163 26.5916 19.0163 26.2295C19.0163 25.8673 19.3098 25.5738 19.672 25.5738H26.8851C27.2473 25.5738 27.5409 25.8673 27.5409 26.2295C27.5409 26.5916 27.2473 26.8852 26.8851 26.8852Z" fill="#CFD9E8"/>
</g>
<defs>
<clipPath id="clip0_102_53">
<rect width="40" height="40" fill="white"/>
</clipPath>
</defs>
</svg>
