<svg width="22" height="16" viewBox="0 0 22 16" fill="none" xmlns="http://www.w3.org/2000/svg">
<path d="M7.94955 5.16944C7.95752 5.10177 7.99338 5.03809 8.04518 4.99824C8.10096 4.95846 8.16869 4.93854 8.23643 4.95049L8.7426 5.01817C8.80635 5.02613 8.8701 5.06193 8.90994 5.11373C8.94724 5.16944 8.96955 5.23957 8.95999 5.30651L8.19116 11.0631H16.61L15.8131 4.69451C15.6856 3.67546 14.817 2.90759 13.7891 2.90759H8.21093C7.18296 2.90759 6.31436 3.67514 6.18686 4.69451L5.38999 11.0631H7.15905L7.94955 5.16944ZM17.885 3.41632C18.0364 3.41632 18.1838 3.37252 18.3073 3.28891L19.8373 2.26955C20.0724 2.12226 20.2077 1.86283 20.1918 1.58424C20.1758 1.30552 20.0125 1.05862 19.7615 0.939408C19.5144 0.81994 19.2196 0.843846 18.9926 0.999109L17.4626 2.01815C17.1798 2.20529 17.0562 2.55238 17.1558 2.87495C17.2507 3.19319 17.5503 3.41632 17.885 3.41632ZM3.69264 3.28882C3.91991 3.44819 4.2138 3.47688 4.46561 3.35257C4.71743 3.23144 4.87999 2.98601 4.89593 2.7071C4.91186 2.42851 4.77799 2.16905 4.53893 2.02179L3.00893 1.00274C2.78038 0.839224 2.48554 0.815318 2.23436 0.934849C1.98351 1.05821 1.81999 1.30524 1.80405 1.58382C1.78811 1.86241 1.92358 2.12187 2.16264 2.26914L3.69264 3.28882ZM4.36999 6.98313C4.36999 6.56111 4.02733 6.21845 3.60499 6.21845H1.56499C1.14264 6.21845 0.799988 6.55983 0.799988 6.98186C0.799988 7.40388 1.14264 7.74781 1.56499 7.74781H3.60499C4.02893 7.74813 4.36999 7.40707 4.36999 6.98313ZM20.435 6.21813H18.395C17.9726 6.21813 17.63 6.56079 17.63 6.98281C17.63 7.40484 17.9726 7.74749 18.395 7.74749H20.435C20.8573 7.74749 21.2 7.40356 21.2 6.98154C21.2 6.55951 20.8589 6.21813 20.435 6.21813ZM17.63 12.0831H4.36999C4.0871 12.0831 3.85999 12.3101 3.85999 12.5928V14.6312C3.85999 14.9136 4.0863 15.1399 4.36999 15.1399H17.63C17.9129 15.1399 18.14 14.913 18.14 14.6303V12.5919C18.14 12.3094 17.9137 12.0831 17.63 12.0831Z" fill="#E60000"/>
</svg>
