<svg width="40" height="40" viewBox="0 0 40 40" fill="none" xmlns="http://www.w3.org/2000/svg">
<g clip-path="url(#clip0_102_62)">
<path d="M20 21.875C17.3492 21.875 14.8677 23.3006 13.5236 25.5955C13.3601 25.8747 13.4538 26.2337 13.733 26.3972C14.0123 26.5608 14.3712 26.467 14.5348 26.1877C15.6695 24.2503 17.7636 23.0469 20 23.0469C23.4894 23.0469 26.3281 25.8857 26.3281 29.375C26.3281 32.8643 23.4894 35.7031 20 35.7031C16.5106 35.7031 13.6719 32.8643 13.6719 29.375C13.6719 29.1009 13.6896 28.8252 13.7246 28.5555C13.7663 28.2346 13.5399 27.9407 13.219 27.8991C12.898 27.8566 12.6041 28.0837 12.5625 28.4047C12.521 28.7243 12.5 29.0508 12.5 29.3751C12.5 33.5106 15.8645 36.8751 20 36.8751C24.1355 36.8751 27.5 33.5106 27.5 29.3751C27.5 25.2395 24.1355 21.875 20 21.875ZM20.7031 24.2188H19.2969C18.7153 24.2188 18.2422 24.6919 18.2422 25.2734V27.6172H15.8984C15.3169 27.6172 14.8438 28.0903 14.8438 28.6719V30.0781C14.8438 30.6597 15.3169 31.1328 15.8984 31.1328H18.2422V33.4766C18.2422 34.0581 18.7153 34.5312 19.2969 34.5312H20.7031C21.2847 34.5312 21.7578 34.0581 21.7578 33.4766V31.1328H24.1016C24.6831 31.1328 25.1562 30.6597 25.1562 30.0781V28.6719C25.1562 28.0903 24.6831 27.6172 24.1016 27.6172H21.7578V25.2734C21.7578 24.6919 21.2847 24.2188 20.7031 24.2188ZM23.9844 28.7891V29.9609H21.4062C20.9539 29.9609 20.5859 30.3289 20.5859 30.7812V33.3594H19.4141V30.7812C19.4141 30.3289 19.0461 29.9609 18.5938 29.9609H16.0156V28.7891H18.5938C19.0461 28.7891 19.4141 28.4211 19.4141 27.9688V25.3906H20.5859V27.9688C20.5859 28.4211 20.9539 28.7891 21.4062 28.7891H23.9844ZM28.6719 4.88281C28.6719 4.12898 28.0585 3.51562 27.3047 3.51562H12.6953C11.9415 3.51562 11.3281 4.12898 11.3281 4.88281V6.28906C11.3281 7.04289 11.9415 7.65625 12.6953 7.65625H27.3047C28.0585 7.65625 28.6719 7.04289 28.6719 6.28906V4.88281ZM27.5 6.28906C27.5 6.3968 27.4123 6.48438 27.3047 6.48438H12.6953C12.5877 6.48438 12.5 6.3968 12.5 6.28906V4.88281C12.5 4.77508 12.5877 4.6875 12.6953 4.6875H27.3047C27.4123 4.6875 27.5 4.77508 27.5 4.88281V6.28906ZM33.8672 18.75H20.0825C19.4934 18.75 18.9466 18.4574 18.6199 17.9672L17.6677 16.539C17.1231 15.7221 16.2119 15.2344 15.23 15.2344H7.91172V2.92969C7.91172 1.96047 8.70023 1.17188 9.66953 1.17188H30.3305C31.2998 1.17188 32.0883 1.96047 32.0883 2.92969V16.6016C32.0883 16.9252 32.3506 17.1875 32.6742 17.1875C32.9978 17.1875 33.2602 16.9252 33.2602 16.6016V2.92969C33.2602 1.31422 31.9459 0 30.3305 0H9.66953C8.05406 0 6.73984 1.31422 6.73984 2.92969V15.2344H6.13281C4.51734 15.2344 3.20312 16.5486 3.20312 18.1641V37.0703C3.20312 38.6858 4.51734 40 6.13281 40H33.8672C35.4827 40 36.7969 38.6858 36.7969 37.0703V21.6797C36.7969 20.0642 35.4827 18.75 33.8672 18.75ZM35.625 37.0703C35.625 38.0395 34.8365 38.8281 33.8672 38.8281H6.13281C5.16352 38.8281 4.375 38.0395 4.375 37.0703V18.1641C4.375 17.1948 5.16352 16.4062 6.13281 16.4062H15.23C15.8191 16.4062 16.3659 16.6988 16.6926 17.1891L17.6448 18.6173C18.1894 19.4341 19.1006 19.9219 20.0825 19.9219H33.8672C34.8365 19.9219 35.625 20.7105 35.625 21.6797V37.0703ZM28.0859 12.3438H11.9141C11.5905 12.3438 11.3281 12.606 11.3281 12.9297C11.3281 13.2534 11.5905 13.5156 11.9141 13.5156H28.0859C28.4095 13.5156 28.6719 13.2534 28.6719 12.9297C28.6719 12.606 28.4095 12.3438 28.0859 12.3438ZM28.0859 10H11.9141C11.5905 10 11.3281 10.2623 11.3281 10.5859C11.3281 10.9096 11.5905 11.1719 11.9141 11.1719H28.0859C28.4095 11.1719 28.6719 10.9096 28.6719 10.5859C28.6719 10.2623 28.4095 10 28.0859 10Z" fill="#CFD9E8"/>
</g>
<defs>
<clipPath id="clip0_102_62">
<rect width="40" height="40" fill="white"/>
</clipPath>
</defs>
</svg>
