<svg width="22" height="12" viewBox="0 0 22 12" fill="none" xmlns="http://www.w3.org/2000/svg">
<path d="M20.3501 0.882369C19.8355 0.669277 19.2433 0.786977 18.8494 1.18082L16.2261 3.80434V2.20528C16.2261 1.06653 15.3027 0.143066 14.1638 0.143066H2.86231C1.7234 0.143066 0.799988 1.06653 0.799988 2.20528V9.7948C0.799988 10.9335 1.7234 11.857 2.86231 11.857H14.1638C15.3027 11.857 16.2261 10.9335 16.2261 9.7948V8.19569L18.8494 10.8192C19.113 11.0827 19.465 11.2228 19.8234 11.2228C20.0007 11.2228 20.1797 11.1883 20.3501 11.1177C20.8644 10.9046 21.2 10.4026 21.2 9.84558V2.15445C21.2 1.59748 20.8644 1.09546 20.3501 0.882369ZM10.4925 6.5343L7.68158 8.69389C7.56169 8.78618 7.41674 8.83334 7.27108 8.83334C7.16968 8.83334 7.06787 8.81052 6.97334 8.76392C6.74319 8.65055 6.59748 8.41632 6.59748 8.15964V3.8404C6.59748 3.58366 6.74319 3.34948 6.97334 3.23616C7.2036 3.12269 7.47811 3.14978 7.68153 3.30619L10.4924 5.46573C10.6584 5.59326 10.7557 5.79072 10.7557 5.99999C10.7558 6.20931 10.6585 6.40677 10.4925 6.5343Z" fill="#3BD8D1"/>
</svg>
